<?xml version="1.0" encoding="UTF-8"?>
<svg viewBox="0 0 793.7 1122.5" xmlns="http://www.w3.org/2000/svg">
 <g stroke-width="6.25">
  <ellipse cx="369.3" cy="403.48" rx="180" ry="165" fill="#073666" stroke="#073666" stroke-dasharray="null"/>
  <g fill="#fff" stroke="#000">
   <ellipse cx="356.3" cy="397.48" stroke-dasharray="null"/>
   <g stroke-dashoffset="1.25">
    <path d="m241.84 323.63c-4.5331 1.1199-7.3177 5.82-6.2407 10.534l37.53 172.13c1.0771 4.7135 5.5825 7.6126 10.116 6.4927l211.39-52.224c4.5331-1.1199 7.3177-5.8201 6.2407-10.534l-26.394-133.54c-1.077-4.7135-5.5973-7.2446-10.13-6.4891l-123.3 19.072s-11.461-21.087-15.994-19.967l-83.214 14.531z"/>
    <path d="m512.75 340.34l-207.73 35.769c-4.5331 1.1199-8.3992 5.0387-8.8878 9.5877l-22.756 121.04c0.95782 4.1916 5.3783 7.3088 9.9114 6.1888l211.38-52.222c4.533-1.1199 6.0096-5.1227 6.9354-9.2689l21.057-105.55c0.28351-7.6762-5.7286-5.9359-9.9113-5.5447z" opacity=".825"/>
   </g>
  </g>
 </g>
</svg>
