<?xml version="1.0" encoding="UTF-8"?>
<svg viewBox="0 0 155.63 322.5" xmlns="http://www.w3.org/2000/svg">
 <g stroke="#000" stroke-linecap="round" stroke-linejoin="round" stroke-miterlimit="2.613" stroke-width=".5">
  <rect x="24.377" y=".25" width="106.63" height="2.958"/>
  <path d="m130.58 4.649h-105.86s1.369 5.597 9.021 10.963c0 0-0.456 1.94 2.056 3.539s3.654 1.371 3.654 1.371h76.394s1.143 0.228 3.654-1.371c2.513-1.599 2.056-3.539 2.056-3.539 7.65-5.366 9.02-10.963 9.02-10.963z"/>
 </g>
 <path d="m77.902 13.883c1.079 0.057 1.949-1.828 2.409-3.825 0.37801-1.566 0.548-3.135 0.602-3.718h-6.157c0.054001 0.583 0.22401 2.152 0.602 3.718 0.46 1.997 1.33 3.882 2.41 3.825h0.134z" fill="#fff"/>
 <path d="m68.211 10.036c0.682 1.993 1.772 3.898 2.865 3.845h0.136c0.857 0.036 1.461-1.144 1.773-2.705 0.316-1.538 0.368-3.342 0.368-4.321 0-0.218-0.001999-0.394-0.004997-0.519h-6.154c0.125 0.603 0.47 2.152 1.017 3.7z" fill="#fff"/>
 <path d="m60.935 10.016c0.907 1.993 2.219 3.913 3.324 3.867l0.136-3e-3c0.554 3e-3 0.91801-0.419 1.175-1.204 0.245-0.771 0.329-1.828 0.329-2.859 0-1.513-0.175-2.971-0.243-3.478h-6.146c0.199 0.619 0.714 2.149 1.425 3.677z" fill="#fff"/>
 <path d="m53.531 9.999c1.127 1.991 2.665 3.926 3.782 3.882h0.135c0.418-0.007999 0.657-0.213 0.854-0.649 0.188-0.433 0.27-1.077 0.27-1.793 0-1.961-0.578-4.445-0.741-5.102h-6.134c0.274 0.632 0.957 2.147 1.834 3.662z" fill="#fff"/>
 <path d="m46.059 9.984c1.353 1.991 3.117 3.938 4.242 3.897h0.136c0.623-0.002999 0.86-0.539 0.878-1.572 0.003002-2.02-1.117-5.256-1.378-5.971h-6.117c0.353 0.643 1.2 2.144 2.239 3.646z" fill="#fff"/>
 <path d="m38.549 9.97c1.578 1.994 3.567 3.948 4.701 3.911h0.136c0.519-0.011999 0.677-0.319 0.706-1.063 0.010002-1.938-1.74-5.748-2.091-6.48h-6.093c0.431 0.651 1.442 2.141 2.641 3.632z" fill="#fff"/>
 <path d="m31.016 9.961c1.804 1.991 4.018 3.956 5.161 3.92h0.136c0.449-0.023 0.547-0.198 0.58-0.743 0.017998-1.81-2.42-6.077-2.852-6.801h-6.066c0.509 0.659 1.681 2.141 3.041 3.624z" fill="#fff"/>
 <path d="m84.636 13.881c1.092 0.053 2.184-1.852 2.866-3.845 0.546-1.548 0.892-3.096 1.017-3.699h-6.157c-0.002998 0.125-0.004997 0.301-0.004997 0.519 0 0.981 0.050995 2.783 0.368 4.321 0.311 1.562 0.916 2.74 1.776 2.705h0.135v-1e-3z" fill="#fff"/>
 <path d="m89.812 9.818c0 1.031 0.083 2.088 0.329 2.859 0.257 0.782 0.62 1.206 1.177 1.205h0.136c1.104 0.047 2.417-1.873 3.323-3.866 0.712-1.528 1.229-3.059 1.428-3.677h-6.146c-0.07 0.507-0.247 1.966-0.247 3.479z" fill="#fff"/>
 <path d="m97.14 11.438c-0.002998 0.716 0.078003 1.362 0.268 1.793 0.19701 0.436 0.437 0.642 0.856 0.649h0.134c1.117 0.044 2.654-1.89 3.783-3.883 0.877-1.516 1.562-3.03 1.836-3.661h-6.135c-0.16 0.656-0.744 3.141-0.742 5.102z" fill="#fff"/>
 <path d="m104.4 12.308c0.018997 1.036 0.252 1.573 0.88 1.575h0.135c1.125 0.04 2.89-1.907 4.242-3.9 1.038-1.502 1.888-3.002 2.239-3.644h-6.114c-0.256 0.713-1.386 3.95-1.382 5.969z" fill="#fff"/>
 <path d="m111.62 12.819c0.027 0.743 0.184 1.051 0.707 1.063h0.135c1.135 0.037 3.124-1.92 4.7-3.911 1.2-1.491 2.213-2.982 2.644-3.633h-6.093c-0.345 0.735-2.105 4.542-2.093 6.481z" fill="#fff"/>
 <path d="m118.82 13.14c0.032997 0.546 0.129 0.718 0.584 0.742h0.135c1.143 0.036 3.359-1.928 5.16-3.921 1.36-1.482 2.533-2.964 3.044-3.623h-6.064c-0.423 0.728-2.876 4.991-2.859 6.802z" fill="#fff"/>
 <path d="m76.216 16.832c-0.398 0.228-0.595 0.511-0.592 0.774-0.002998 0.264 0.193 0.547 0.592 0.776 0.392 0.224 0.958 0.369 1.589 0.369 0.628 0 1.197-0.146 1.59-0.369 0.397-0.229 0.594-0.512 0.591-0.776 0.002998-0.263-0.193-0.546-0.591-0.774-0.393-0.225-0.962-0.372-1.59-0.372-0.631 0-1.198 0.147-1.589 0.372z" fill="#fff"/>
 <path d="m71.133 16.461c-1.199 0-1.974 0.562-1.976 1.052 0 0.017 0.001999 0.039 0.006004 0.067999 0.028 0.548 1.044 1.184 2.286 1.172 1.193-0.002001 1.972-0.566 1.974-1.056 0-0.028 0-0.049-0.003998-0.065001-0.027-0.549-1.044-1.185-2.286-1.171" fill="#fff"/>
 <path d="m64.46 16.461c-1.115 0-1.777 0.503-1.778 0.957 0 0.043001 0.005001 0.09 0.014999 0.139 0.104 0.576 1.19 1.208 2.396 1.196 1.111-0.002001 1.774-0.509 1.779-0.958-0.001999-0.049-0.006004-0.094-0.015999-0.14-0.102-0.572-1.19-1.207-2.396-1.194" fill="#fff"/>
 <path d="m57.789 16.461c-1.038 0-1.595 0.448-1.598 0.862 0 0.062 0.011997 0.133 0.039997 0.211 0.182 0.603 1.334 1.23 2.505 1.219 1.03-0.002001 1.594-0.454 1.596-0.863-0.001999-0.066999-0.012001-0.137-0.037003-0.212-0.183-0.6-1.337-1.23-2.506-1.217" fill="#fff"/>
 <path d="m51.117 16.46c-0.958 0.004002-1.424 0.395-1.424 0.767 0 0.083 0.019001 0.178 0.07 0.286 0.266 0.627 1.479 1.25 2.617 1.239 0.955-0.004002 1.423-0.396 1.426-0.765-0.002998-0.085999-0.021-0.181-0.070999-0.288-0.267-0.627-1.479-1.249-2.618-1.237" fill="#fff"/>
 <path d="m44.447 16.46c-0.886 0.008001-1.268 0.345-1.268 0.67 0 0.103 0.030998 0.224 0.114 0.367 0.356 0.648 1.626 1.268 2.73 1.256 0.876-0.006001 1.262-0.349 1.264-0.672 0-0.104-0.030998-0.224-0.112-0.363-0.353-0.649-1.624-1.267-2.728-1.258" fill="#fff"/>
 <path d="m40.621 17.732c-0.449-0.667-1.774-1.28-2.847-1.272-0.808 0.01-1.118 0.299-1.12 0.579 0 0.114 0.047001 0.264 0.169 0.44 0.448 0.668 1.772 1.282 2.846 1.273 0.802-0.008001 1.114-0.302 1.116-0.58 0-0.115-0.042999-0.264-0.164-0.44" fill="#fff"/>
 <path d="m84.442 16.461c-1.241-0.012001-2.26 0.623-2.287 1.177-0.003998 0.021999-0.005997 0.042-0.005997 0.059 0.001999 0.491 0.777 1.054 1.978 1.056 1.241 0.011999 2.258-0.623 2.285-1.169 0.001999-0.021999 0.003998-0.042999 0.003998-0.070999-0.003998-0.49-0.78-1.05-1.974-1.052" fill="#fff"/>
 <path d="m91.114 16.462c-1.206-0.014-2.293 0.619-2.396 1.198-0.012001 0.047001-0.015999 0.091-0.018005 0.134 0.004005 0.451 0.666 0.958 1.783 0.958 1.204 0.014 2.292-0.619 2.393-1.192 0.012001-0.046999 0.015999-0.094999 0.015999-0.142-0.001999-0.454-0.664-0.956-1.778-0.956" fill="#fff"/>
 <path d="m97.786 16.461c-1.17-0.012001-2.322 0.615-2.506 1.219-0.027 0.077-0.040001 0.146-0.040001 0.209 0.002998 0.412 0.562 0.863 1.6 0.863 1.168 0.011999 2.322-0.615 2.505-1.219 0.026001-0.075001 0.034996-0.146 0.038002-0.211-0.003006-0.414-0.565-0.861-1.597-0.861" fill="#fff"/>
 <path d="m104.46 16.461c-1.138-0.011-2.351 0.612-2.619 1.24-0.049995 0.106-0.070999 0.203-0.070999 0.286 0.001999 0.369 0.468 0.762 1.428 0.766 1.137 0.011 2.35-0.612 2.616-1.238 0.050003-0.106 0.069-0.204 0.069-0.29-0.001999-0.371-0.46999-0.76-1.423-0.764" fill="#fff"/>
 <path d="m111.13 16.461c-1.104-0.01-2.374 0.608-2.731 1.258-0.081001 0.14-0.113 0.261-0.113 0.361 0.001999 0.324 0.38599 0.666 1.267 0.672 1.104 0.011999 2.374-0.608 2.73-1.257 0.080002-0.14 0.112-0.262 0.112-0.366-0.001999-0.325-0.38699-0.663-1.265-0.668" fill="#fff"/>
 <path d="m114.96 17.734c-0.122 0.174-0.168 0.324-0.168 0.437 0.001999 0.281 0.311 0.572 1.12 0.582 1.07 0.01 2.397-0.605 2.845-1.271 0.12-0.176 0.165-0.326 0.165-0.441-9.99e-4 -0.281-0.314-0.569-1.116-0.579-1.071-0.009001-2.398 0.605-2.846 1.271" fill="#fff"/>
 <path d="m30.877 56.152s1.145 0.156 0.988 1.248c-0.156 1.094-1.299 1.215-1.299 1.215-1.303 0-2.264-0.838-2.264-2.021 0-1.846 1.065-2.793 2.39-2.793 2.006 0 3.321 1.146 3.343 2.95 0.021999 2.004-1.415 4.101-3.643 4.124-2.475 0.028999-4.502-1.953-4.531-4.428-0.030001-2.748 2.174-5.004 4.922-5.035 3.055-0.032997 5.559 2.415 5.594 5.469 0.038002 3.393-2.682 6.177-6.075 6.215-3.771 0.042999-6.863-2.979-6.905-6.75-0.046999-4.189 3.311-7.625 7.5-7.674 4.655-0.053001 8.473 3.68 8.525 8.335 0.058998 5.172-4.086 9.413-9.26 9.472-5.748 0.066002-10.46-4.539-10.525-10.288-0.072001-6.386 5.045-11.622 11.432-11.694 7.095-0.082001 12.913 5.606 12.994 12.701 0.09 7.885-6.229 14.35-14.113 14.439-8.76 0.098999-15.943-6.922-16.042-15.683-0.11-9.733 7.69-17.713 17.423-17.824 10.815-0.123 19.684 8.545 19.807 19.36 0.137 12.016-9.494 21.868-21.512 22.005-13.352 0.151-24.299-10.549-24.451-23.9-0.169-14.836 11.721-26.999 26.555-27.168l0.172-5.579c-17.82 0.203-32.104 14.813-31.9 32.635 0.182 16.038 13.332 28.893 29.371 28.71 14.436-0.164 26.004-11.999 25.84-26.434-0.147-12.991-10.8-23.403-23.791-23.256-11.691 0.134-21.062 9.719-20.93 21.411 0.119 10.523 8.747 18.957 19.27 18.838 9.472-0.107 17.062-7.873 16.954-17.344-0.098-8.523-7.087-15.355-15.609-15.258-7.671 0.086998-13.819 6.377-13.731 14.048 0.078001 6.905 5.738 12.438 12.643 12.358 6.215-0.07 11.193-5.165 11.123-11.378-0.063-5.593-4.648-10.075-10.24-10.012-5.033 0.057999-9.066 4.185-9.01 9.217 0.051001 4.53 3.765 8.161 8.295 8.109 4.077-0.045998 7.344-3.39 7.298-7.466-0.042-3.668-3.05-6.609-6.72-6.568-3.301 0.036999-5.948 2.746-5.911 6.048 0.034 2.972 2.47 5.354 5.442 5.319 2.676-0.028999 4.402-2.548 4.375-4.955-0.025002-2.167-1.605-3.543-4.015-3.543-1.591 0-2.87 1.137-2.87 3.354 0 1.422 1.154 2.429 2.718 2.429 0 0 1.374-0.146 1.562-1.459s-1.189-1.499-1.189-1.499z"/>
 <circle cx="30.735" cy="57.315" r="1.286"/>
 <path d="m124.75 56.152s-1.145 0.156-0.988 1.248c0.156 1.094 1.299 1.215 1.299 1.215 1.303 0 2.264-0.838 2.264-2.021 0-1.846-1.065-2.793-2.39-2.793-2.006 0-3.321 1.146-3.343 2.95-0.022003 2.004 1.415 4.101 3.643 4.124 2.475 0.028999 4.502-1.953 4.531-4.428 0.029999-2.748-2.174-5.004-4.922-5.035-3.055-0.032997-5.559 2.415-5.594 5.469-0.038002 3.393 2.682 6.177 6.075 6.215 3.771 0.042999 6.863-2.979 6.905-6.75 0.047012-4.189-3.311-7.625-7.5-7.674-4.655-0.053001-8.473 3.68-8.525 8.335-0.058998 5.172 4.086 9.413 9.26 9.472 5.748 0.066002 10.46-4.539 10.525-10.288 0.071991-6.386-5.045-11.622-11.432-11.694-7.095-0.082001-12.913 5.606-12.994 12.701-0.090004 7.885 6.229 14.35 14.113 14.439 8.76 0.098999 15.943-6.922 16.042-15.683 0.11-9.733-7.69-17.713-17.423-17.824-10.815-0.123-19.684 8.545-19.807 19.36-0.137 12.016 9.494 21.868 21.512 22.005 13.352 0.151 24.299-10.549 24.451-23.9 0.168-14.836-11.723-26.999-26.557-27.168l-0.172-5.579c17.82 0.203 32.104 14.813 31.9 32.635-0.18201 16.038-13.332 28.893-29.371 28.71-14.436-0.164-26.004-11.999-25.84-26.434 0.147-12.991 10.8-23.403 23.791-23.256 11.691 0.134 21.062 9.719 20.93 21.411-0.11899 10.523-8.747 18.957-19.27 18.838-9.472-0.107-17.062-7.873-16.954-17.344 0.098-8.523 7.087-15.355 15.609-15.258 7.671 0.086998 13.819 6.377 13.731 14.048-0.078003 6.905-5.738 12.438-12.643 12.358-6.215-0.07-11.193-5.165-11.123-11.378 0.062996-5.593 4.648-10.075 10.24-10.012 5.033 0.057999 9.066 4.185 9.01 9.217-0.050995 4.53-3.765 8.161-8.295 8.109-4.077-0.045998-7.344-3.39-7.298-7.466 0.042-3.668 3.05-6.609 6.72-6.568 3.301 0.036999 5.948 2.746 5.911 6.048-0.033997 2.972-2.47 5.354-5.442 5.319-2.676-0.028999-4.402-2.548-4.375-4.955 0.025002-2.167 1.605-3.543 4.015-3.543 1.591 0 2.87 1.137 2.87 3.354 0 1.422-1.154 2.429-2.718 2.429 0 0-1.374-0.146-1.562-1.459s1.191-1.499 1.191-1.499z"/>
 <circle cx="124.89" cy="57.315" r="1.286"/>
 <rect x="31.658" y="22.84" width="92.558" height="5.578"/>
 <g stroke="#000" stroke-linecap="round" stroke-linejoin="round" stroke-width=".5">
  <path d="m90.645 71.215h-37.462s2.229-3.338 2.691-6.75h30.146l4.625 6.75z"/>
  <path d="m65.084 71.215h37.462s-2.229-3.338-2.691-6.75h-30.146l-4.625 6.75z"/>
 </g>
 <g stroke="#000" stroke-linecap="round" stroke-linejoin="round" stroke-miterlimit="2.613" stroke-width=".5">
  <path d="m37.772 31.632h40.167v6.167h-20s-12-0.333-20.167-6.167z"/>
  <path d="m117.65 31.632h-40.167v6.167h20s12-0.333 20.167-6.167z"/>
 </g>
 <g stroke="#000" stroke-linecap="round" stroke-linejoin="round" stroke-width=".5">
  <path d="m77.657 47.632h2.754c0.92699-0.923-2.475-5.539-2.475-5.539h-0.23s-3.418 4.616-2.492 5.539h2.443z"/>
  <path d="m71.46 47.632h2.541c0.93-0.923-1.819-5.539-1.819-5.539h-0.212s-3.538 4.616-2.761 5.539h2.251z"/>
  <path d="m65.713 47.632h2.326c0.936-0.923-1.16-5.539-1.16-5.539h-0.194s-3.657 4.616-3.031 5.539h2.059z"/>
  <path d="m60.409 47.632h2.109c0.941-0.923-0.503-5.539-0.503-5.539h-0.175s-3.777 4.616-3.3 5.539h1.869z"/>
  <path d="m55.437 47.632h1.896c0.946-0.923 0.154-5.539 0.154-5.539h-0.157s-3.897 4.616-3.57 5.539h1.677z"/>
  <path d="m53.401 42.093h-0.14s-0.751 0.863-1.59 1.918c0.521 0.775 0.997 1.584 1.432 2.419 0.377-1.685 0.298-4.337 0.298-4.337z"/>
  <path d="m77.972 54.054h-2.756c-0.926 0.923 2.492 5.539 2.492 5.539h0.23s3.401-4.616 2.475-5.539h-2.441z"/>
  <path d="m71.75 54.054h-2.541c-0.777 0.923 2.761 5.539 2.761 5.539h0.212s2.749-4.616 1.819-5.539h-2.251z"/>
  <path d="m65.979 54.054h-2.327c-0.626 0.923 3.031 5.539 3.031 5.539h0.194s2.096-4.616 1.16-5.539h-2.058z"/>
  <path d="m60.649 54.054h-2.108c-0.478 0.923 3.3 5.539 3.3 5.539h0.175s1.444-4.616 0.503-5.539h-1.87z"/>
  <path d="m55.995 57.93c0.72 0.934 1.334 1.663 1.334 1.663h0.157s0.792-4.616-0.154-5.539h-1.685c0.087002 0.523 0.163 1.052 0.219 1.587 0.078999 0.768 0.118 1.531 0.129 2.289z"/>
  <path d="m54.354 49.218c0.41 1.089 0.744 2.216 1.006 3.375h31.205v-3.375h-32.211z"/>
  <path d="m84.234 47.632h-2.541c-0.93-0.923 1.819-5.539 1.819-5.539h0.212s3.538 4.616 2.761 5.539h-2.251z"/>
  <path d="m89.981 47.632h-2.326c-0.936-0.923 1.16-5.539 1.16-5.539h0.194s3.657 4.616 3.031 5.539h-2.059z"/>
  <path d="m95.285 47.632h-2.109c-0.941-0.923 0.503-5.539 0.503-5.539h0.175s3.777 4.616 3.3 5.539h-1.869z"/>
  <path d="m100.26 47.632h-1.896c-0.946-0.923-0.154-5.539-0.154-5.539h0.157s3.897 4.616 3.57 5.539h-1.677z"/>
  <path d="m102.29 42.093h0.14s0.751 0.863 1.59 1.918c-0.521 0.775-0.997 1.584-1.432 2.419-0.37701-1.685-0.298-4.337-0.298-4.337z"/>
  <path d="m83.944 54.054h2.541c0.777 0.923-2.761 5.539-2.761 5.539h-0.212s-2.749-4.616-1.819-5.539h2.251z"/>
  <path d="m89.716 54.054h2.327c0.626 0.923-3.031 5.539-3.031 5.539h-0.194s-2.096-4.616-1.16-5.539h2.058z"/>
  <path d="m95.045 54.054h2.108c0.478 0.923-3.3 5.539-3.3 5.539h-0.175s-1.444-4.616-0.503-5.539h1.87z"/>
  <path d="m99.699 57.93c-0.72 0.934-1.334 1.663-1.334 1.663h-0.157s-0.792-4.616 0.154-5.539h1.685c-0.086998 0.523-0.16299 1.052-0.21899 1.587-0.079002 0.768-0.118 1.531-0.129 2.289z"/>
  <path d="m101.34 49.218c-0.41 1.089-0.744 2.216-1.006 3.375h-31.205v-3.375h32.211z"/>
 </g>
 <path d="m103.46 72.078h-51.189s-2.991 5.497-11.146 9.869v231.67l36.479-0.981h0.521l36.479 0.981v-231.67c-8.153-4.372-11.144-9.869-11.144-9.869z"/>
 <g fill="#fff">
  <path d="m81.65 315.45l-7.464-0.034-0.023-230.04s0.667-9 3.667-9h0.151c3 0 3.667 9 3.667 9l2e-3 230.07z"/>
  <path d="m70.847 85.385l2e-3 230.07-6.682-0.034-0.021-230.04s0.59699-9 3.282-9h0.136c2.686 0 3.283 9 3.283 9z"/>
  <path d="m60.046 85.385l2e-3 230.07-5.898-0.034-0.02-230.04s0.527-9 2.898-9h0.12c2.372 0 2.898 9 2.898 9z"/>
  <path d="m49.246 321.5l-5.116-0.034-0.016-230.04s0.457-9 2.514-9h0.104c2.057 0 2.514 9 2.514 9v230.07z"/>
 </g>
 <g fill="#fff">
  <path d="m85.02 85.385l-2e-3 230.07 6.682-0.034 0.02-230.04s-0.597-9-3.282-9h-0.136c-2.686 0-3.282 9-3.282 9z"/>
  <path d="m95.82 85.385l-2e-3 230.07 5.898-0.034 0.02-230.04s-0.527-9-2.898-9h-0.12c-2.371 0-2.898 9-2.898 9z"/>
  <path d="m106.62 321.5l5.116-0.034 0.016-230.04s-0.457-9-2.514-9h-0.104c-2.057 0-2.514 9-2.514 9v230.07z"/>
 </g>
</svg>
