<?xml version="1.0" encoding="UTF-8"?>
<svg viewBox="0 0 5000 3000" xmlns="http://www.w3.org/2000/svg">
 <g fill-rule="evenodd">
  <g fill="#fff">
   <path d="m4775.5 1922.7c-14.866 1.3107-15.592-11.234-30.477-9.9404v-64.724c35.436 0.1106 31.183 39.124 30.477 74.665z"/>
   <path d="m4745.1 1609.1c-17.792-5.7711-27.385-19.601-50.744-19.924-3.9463-33.737 6.9224-52.929 5.0874-84.614 31.673 18.681 51.33 49.201 45.656 104.54z"/>
   <path d="m4699.4 2082c-34.385-4.2554-20.305-57.328-20.305-89.61v-109.51c59.343 22.468 18.762 141.13 20.305 199.12z"/>
   <path d="m4653.7 1579.2c-16.878-8.3315-27.483-22.834-45.676-29.872 3.7217-36.826-5.6748-60.809-5.0859-94.58 59.628-0.37415 53.492 63.703 50.762 124.45z"/>
   <path d="m4643.6 2106.9c-7.0596 19.584-34.12-21.31-50.761-24.885-4.7036-89.976-6.3823-182.9-10.142-273.79 96.536 24.783 37.28 202.36 60.903 298.68z"/>
   <path d="m4547.1 1629v139.38c-21.463-5.4982-48.308-5.7361-76.153-4.9877-3.3384-44.817 6.7349-102.83-5.0664-139.37 22.289-13.37 51.646 8.9532 81.22 4.9785z"/>
   <path d="m4542 2032.2h-71.067v-214.04c27.668-2.2468 41.729 8.8766 71.067 4.971 0.88379 51.081-0.62842 141.77 0 209.07z"/>
   <path d="m4521.7 1424.9v114.5c-22.573-7.7191-31.99-28.349-55.829-34.843-3.1616-35.081-3.3384-73.064-10.142-104.54 18.792 11.412 45.332 15.268 65.971 24.885z"/>
   <path d="m4410.1 1439.8c-21.13-2.4934-29.613-17.413-50.763-19.906 3.417-24.928-4.7026-38.536-5.0659-59.745 43.575 2.0679 66.206 24.698 55.829 79.652z"/>
  </g>
  <path d="m4344.1 2699.2c0.94238 4.238-1.9731 4.7068-5.0664 4.9702-110.15 0.43359-243.35 0.3833-350.25 4.9871-42.652 1.8469-99.355 20.264-121.83-19.915 143.82-11.617 309.63-1.6599 461.92-4.9707 2.8467 7.166 7.9238 12.154 15.228 14.928z"/>
  <path d="m4339 1579.2c-38.911 35.83-188.59 37.558-233.5 4.979 67.69-11.591 157.34-1.6768 233.5-4.979z"/>
  <path d="m4293.3 2569.8c-27.178-103.14 5.0278-233.89-5.0659-353.44-17.183-66.128-155.75-13.183-208.13-44.8 11.626-27.064 57.685-14.928 91.362-14.928 78.244 0 127.28-12.4 142.14 49.771 13.922 58.282-5.0874 162.85-5.0874 238.95 0 46.725 12.097 101.97-15.228 124.45z"/>
  <path d="m4283.2 1808.2c17.025 39.711 12.5 100.56 15.228 154.32-51.352-7.7103-107.95-10.306-162.43-14.945 6.5991-48.741-27.865-122.96 5.0859-149.34-59.088-153 222.81-93.201 142.12 9.958z"/>
  <path d="m4293.3 1997.3v44.801h-25.371c-2.7197-19.269 9.0532-24.299 5.0664-44.801h20.305z"/>
  <path d="m4242.5 2525c-15.494-3.5918-18.488 5.106-30.458 4.9871v89.593c-38.332-2.7578-67.768 3.2253-101.52 4.9876 5.3511-30.119-1.2666-48.52-35.514-39.831-5.0671-68.205-7.6096-157.4-10.163-228.97-1.1294-31.719-15.327-66.393 15.229-84.622 10.241 21.473 6.823 56.367 30.457 64.716 3.9473 17.141-2.8179 23.77-20.285 19.916v169.24c11.085 7.3103 28.425-21.711 45.676-24.886 8.8564-72.605-10.799-173.19 25.391-219.02-2.9155-12.383-28.494-28.094-20.305-34.86 30.586-0.13599 62.477-1.5493 86.297 4.9871 24.025 72.648 12.744 179.94 15.199 273.77z"/>
  <path d="m4004 2574.8c-28.11-9.6262-15.091-51.498-15.229-74.665-0.5-91.575 8.4155-188.16 5.0666-288.72-32.273-67.907-203.93 0.89429-258.85-44.8 85.108 1.1665 253.66-36.366 279.18 39.814 0 126.15-1.9053 250.39-10.173 368.37z"/>
  <path d="m3988.8 1962.5c-27.982-9.0299-15.11-52.145-15.228-74.664-0.42285-76.248 0.3042-174.45 0-253.89-23.565-69.804-182.29-7.0631-233.5-49.779 89.555 3.4556 242.4-38.136 263.95 34.852 13.707 46.426-2.0322 123.72-5.0657 189.16-2.7104 58.06 9.9849 114.68-10.163 154.32z"/>
  <path d="m4004 1992.4c3.9084 23.753-7.9424 32.052-5.0657 54.775h-35.554c-2.8379-22.724 8.9934-31.022 5.0864-54.775h35.533z"/>
  <path d="m3963.4 2375.7v199.12c-20.178 8.4087-53.541 3.9231-81.2 4.9873 2.7195-73.652 7.4033-145.4 10.142-219.03-19.618-0.97852-37.419-0.17847-50.762 4.9702-35.367 46.638-23.241 139.85-25.392 219.03h-65.99v-209.08c-7.7466-22.537 33.158 2.6467 25.391-19.898 13.216-31.217-27.924-9.1404-25.391-29.872 14.935-110.04 190.66-103.66 208.12 0-5.0068 19.966-21.09 29.09-25.39 49.771h30.467z"/>
  <path d="m3943.1 1957.5h-197.96c-15.494-55.584 5.4487-117.02 0-179.21-4.8696-18.034 21.915-5.0724 25.391-14.946-30.644-38.366 16.642-76.034 35.514-109.51 175.82-59.074 134.26 161.92 137.06 303.66zm-71.067-268.82c-15.268-4.9194-22.652-17.601-45.677-14.928-27.541 17.804-19.117 70.844-25.372 109.52 40.698 18.17 8.9553 107.35 25.372 149.34 27.1-1.7109 41.846 18.221 65.992 4.97 9.3169-105.51-33.796-150.4-20.315-248.9z"/>
  <path d="m3892.3 1937.6c-24.144 13.251-38.891-6.6809-65.991-4.97-16.417-41.992 15.327-131.17-25.371-149.34 6.2539-38.681-2.1706-91.721 25.371-109.52 23.034-2.6727 30.418 10.009 45.676 14.928-13.471 98.503 29.642 143.4 20.315 248.9z" fill="#fff"/>
  <path d="m3674 2594.7c-28.876-116.03 5.3909-294-30.457-403.21-83.055-13.635-196.41 27.396-243.64-14.928 71.646-14.374 163.48-8.9277 248.72-9.9578 53.022 27.643 35.514 139.7 35.514 243.92 0 68.921 7.8645 139.75-10.143 184.18z"/>
  <path d="m3669 1370.1c-22.858-8.9106-18.989-65.873-20.305-94.58-3.8879-83.754 11.93-193.34-25.39-248.9-83.017-6.5109-192.73 13.123-258.87-9.9576 1.9141-26.988 40.403-14.307 55.848-14.928 92.256-3.7111 238.93-21.549 258.87 49.779 23.545 84.205-9.7986 240.11-10.152 318.58z"/>
  <path d="m3679.1 1609.1c-6.7158 117.86 13.441 262.08-10.143 363.38-28.228-10.341-15.11-51.26-15.248-74.665-0.48071-88.47-7.884-187.57-5.0664-278.75-42.288-54.792-194.07-2.1698-258.87-34.851 80.16-15.379 243.96-27.048 289.32 24.886z"/>
  <path d="m3663.9 1997.3c3.9668 20.494-7.8057 25.532-5.0854 44.801h-25.372v-44.801h30.457z"/>
  <path d="m3653.7 797.66c-3.3181 28.272 6.6768 69.601-5.0664 89.601h-10.162c-22.632-10.988-4.1438-62.307-10.143-89.601h25.371z"/>
  <path d="m3653.7 1414.9v49.78h-25.371v-54.75c14.345-4.1106 13.146 7.0215 25.371 4.9702z"/>
  <path d="m3613.1 2604.7h-20.304c-13.138-20.315 9.21-64.877 10.162-99.551 1.3648-49.72-17.702-100.32-20.306-144.37-111.46 7.5666-77.242 146.51-86.295 243.92-40.198-8.7068-10.967-85.491-71.066-74.666-13.825 18.801 18.046 61.686 10.162 74.666-36.938 4.7063-18.528-44.878-40.62-54.758 6.7854-66.375-17.3-163 20.305-199.12-63.114-100.89 114.74-154.14 187.82-94.58 7.001 32.367 30.663 62.503 10.142 94.58 38.734 56.614 20.866 193.37 0 253.88z"/>
  <path d="m3613.1 1380.1c-30.034-45.217 13.363-162.45-30.456-194.15 3.6814-11.336 4.5261-25.43 10.142-34.851-12.154-73.908-135-62.673-177.66-39.822 5.7937-73.473 186.61-51.439 197.96 14.937-3.574 81.712 22.602 186.61 0.009277 253.88z"/>
  <path d="m3608.1 1952.5c-19.274-30.851-11.468-88.3-15.229-134.39-10.849-17.55-50.221-7.149-76.133-9.9576-32.431 17.966-16.574 83.295-20.305 129.42 10.526 11.251 44.027-0.034058 50.762 14.928-24.487 33.098-99.718-2.0428-152.29 9.9744v-189.17c-4.1448-19.014 10.819-19.286 20.304-24.903-1.0701-9.3782-20.344-25.864-10.142-29.856 14.935-36.102 41.69-63.388 76.133-69.711 174.65-32.043 148.12 165.35 126.9 303.66z"/>
  <path d="m3344.1 289.9v14.928c5.2141 16.724-15.778 7.7534-25.371 9.9575 6.8037 131.04 13.078 262.62 20.304 393.26-23.181 7.1321-13.215 46.784-30.476 59.728-39.098-28.332 3.2991-55.524 10.162-79.635 14.463-50.775-19.618-115.94-5.0662-179.21h-86.316c-3.24-18.4 6.5786-49.592-5.0664-59.728 18.714-11.524 59.137-1.745 86.276-4.9877 3.7602-40.179-8.2468-64.92-5.0659-104.54 2.2976-23.838-34.542-9.2767-25.372-39.822 3.4756-21.481 46.107-4.5704 65.99-9.9492zm-86.295 184.19c-0.70679 20.613 35.327 5.183 50.762 9.9491v-19.907c-15.435 4.7662-51.468-10.664-50.762 9.958z"/>
  <path d="m3313.7 2604.7c-17.988-3.958-9.7595-33.592-15.248-49.771-8.1299-19.6 21.915-1.7449 20.305-14.945-5.5378-105.75-9.7014-212.84-15.23-318.59-41.69-57.014-199.15-0.50244-263.95-34.843 22.574-26.128 72.235-14.945 116.75-14.945h126.9c10.742 12.715 24.929 22.009 40.6 29.873-8.0903 131.39 43.035 306.88-10.123 403.22z"/>
  <path d="m3323.8 1380.1c-43.3-23.056-25.371-95.959-25.371-154.32v-174.23c-53.777-61.746-242.45 8.8-304.55-44.801 98.834 2.6382 282.97-35.26 335 29.873 3.5945 119.65-8.4534 223.99-5.0759 343.48z"/>
  <path d="m3323.8 225.18c-6.2939 18.851-66.737 10.681-81.2 4.9701v-9.9575c6.4802-21.83 53.099-4.3148 76.134-9.9491-0.43237 7.0724-0.83496 14.102 5.0659 14.936z"/>
  <path d="m3308.6 1972.4c-23.584-93.022-3.4561-228.9-10.142-338.5-40.158-67.984-208.87-2.9867-274.1-34.842 12.735-26.69 75.27-14.937 116.75-14.937 87.337 0 162.68-7.4213 182.72 49.779-3.2991 107.58 4.8108 234.79-15.229 338.5z"/>
  <path d="m3308.6 464.13v19.907c-15.434-4.7747-51.468 10.655-50.762-9.9491-0.7063-20.622 35.328-5.1918 50.762-9.958z" fill="#fff"/>
  <path d="m3293.4 937.04c-101.47 18.494-240.15 16.137-335 0-29.957-6.8085 1.5906 19.277-20.304 14.928-132.71 18.902-288.96-37.703-375.62 14.928-75.691-14.375-183.52 28.664-223.33-14.928 280.01-49.295 636.35-48.835 959.35-39.822 1.6201 11.541-0.81494 19.115-5.0854 24.894z"/>
  <path d="m3293.4 792.67c-191.22 13.362-445.7 22.647-629.41 9.9583 64.783-34.358 185.27-14.094 279.18-19.907 14.001-85.108-7.3059-178.66 0-273.79-5.313-16.358-55.053 10.851-45.677-19.915-9.5928-30.971 26.697-16.945 45.677-19.915-13.177-43.481 6.0181-118.74-15.249-154.31 14.59-5.8045 57.547-9.7023 60.924-9.9576 5.519 20.349-5.4294 24.545-15.228 29.873 7.1687 143.97 13.501 288.74 20.305 433.08h294.4c-4.1926 14.06 7.1577 12.894 5.0767 24.885z"/>
  <path d="m3288.3 1464.7h-20.304c4.0442-22.562-2.9561-55.984 15.228-64.707 18.803 1.6599 11.154 55.167 5.0762 64.707z"/>
  <path d="m3293.4 2007.3v44.8h-25.372v-44.8h25.372z"/>
  <path d="m3268 2599.7c-25.273-51.533-11.468-141.42-20.305-209.08h-35.514c-8.0713 60.102-9.917 126.33-10.162 194.14 0.097656 14.859 37.624-7.0132 30.457 14.945-46.255 21.642-125.01-9.77-192.89 0 10.545-78.146-29.112-180.12 15.229-228.99 8.1299-19.601-21.916-1.7278-20.286-14.928 6.0586-126.35 218.12-131.36 238.56-24.903 9.553 49.89 10.742 189.08-5.0967 268.81z"/>
  <path d="m3242.6 1400c-27.196 6.7485-15.729-24.409-30.457-29.873-22.612 1.0807-22.671 24.247-35.534 34.852h-55.848c-2.7195-20.57-7.4424-39.175-10.142-59.737h-55.849v-49.779h192.89c10.26-30.835-26.373-81.159 10.143-89.61 28.287 58.792 13.873 150.04-15.2 194.15z"/>
  <path d="m3257.8 1977.4c-23.142-9.1746-18.694-53.788-20.286-84.622-1.1091-21.507 0.84473-45.115 0-64.716-58.008 7.8294-37.762 92.401-45.676 149.34h-157.34c3.6631-56.699-8.3655-98.01-5.105-154.32-15.779-19.362-49.211-21.413-50.743-54.759 45.352-12.945 41.022 22.826 76.134 19.915-3.5837 18.452 8.6697 21.362 5.0857 39.83 16.476-2.8936 23.604 3.3702 35.534 4.9697 15.513-25.353-6.4604-56.596 0-89.592-35.396-2.8085-30.359 23.856-66.01 9.9401 0.15698-95.175 123.08-130.14 213.21-89.592 39.294 46.273 30.428 231.89 15.2 313.61z"/>
  <path d="m3257.8 1166c-29.299 5.5236-24.065-22.86-35.514-34.843-34.287-33.788-105.39-26.8-147.2-4.979 32.136-77.652 206.59-56.204 182.72 39.822z"/>
  <path d="m3212.2 205.27v29.864c-23.801-3.217-60.788 6.5109-76.153-4.9788v-9.9573c11.624-18.468 51.4-9.3451 76.153-14.928z"/>
  <path d="m3212.2 877.29h-30.478c2.4944-15.711-9.1509-17.575-5.0659-34.852h-40.62c-5.9407-7.4468-6.3135-20.358-15.229-24.885 18.714-11.515 59.138-1.736 86.276-4.9702-3.8394 27.03 8.0713 38.57 5.1157 64.707z"/>
  <path d="m3181.7 459.15c2.72 19.26-9.0525 24.298-5.0664 44.801h-60.925v-44.801h65.991z"/>
  <path d="m3105.6 220.19c-6.3127 18.86-66.756 10.698-81.21 4.9873v-9.9576c6.481-21.838 53.099-4.3322 76.154-9.9575-0.47192 7.0723-0.85376 14.102 5.0559 14.928z"/>
  <path d="m3075.1 454.17c3.9661 22.154-6.7651 29.873-5.0859 49.779h-55.849c3.5832-16.4 8.1692-31.822 10.162-49.779h50.772z"/>
  <path d="m3044.6 1185.9c-6.5393 16.809 1.1287 47.559-20.286 49.78-21.022 0.70618-5.2918-34.639-10.162-49.78h30.448z"/>
  <path d="m2988.8 215.22v24.886c-23.78-3.217-60.767 6.5107-76.133-4.9788v-9.9491c6.4805-21.839 53.119-4.3235 76.133-9.9576z"/>
  <path d="m2963.4 1405c-30.035-106.42 23.093-225.76-5.0669-318.59-30.722-101.3-213.88-6.6812-279.18-74.674 101.54-4.9956 265.06-27.66 304.55 44.801v184.18c0 60.528 13.078 128.82-20.305 164.28z"/>
  <path d="m2983.7 2604.7c-30.546-18.486-23.359-71.014-25.372-114.5-4.3892-94.614 12.5-224.05-30.478-283.75-82.937-11.787-188.99 22.621-243.64-9.9573 94.661-1.5493 262.71-31.95 299.49 39.83v368.37z"/>
  <path d="m2968.5 1977.4c-27.61-9.6599-17.703-65.779-20.286-104.54-4.4285-66.129-11.164-140.95-15.229-214.05-14.207-14.281-22.553-34.324-40.619-44.809-68.024-7.9662-171.65 18.996-208.12-19.906 85.009-2.0344 238.5-28.137 279.18 29.864-1.8162 114.55 24.232 257.7 5.0769 353.44z"/>
  <path d="m2938 1414.9c0.30469 21.864-2.0322 41.15-10.162 54.767-17.781-5.7793-11.085-35.575-15.209-54.767h25.371z"/>
  <path d="m2938 2062.1h-25.371c2.5925-24.017-10.378-63.268 20.305-59.745-3.5439 25.056 8.6108 34.698 5.0662 59.745z"/>
  <path d="m2933 2475.2c3.6821 53.388-8.3462 91.372-5.1062 144.35h-238.56c30.477-54.724 8.6694-160.76 15.249-238.93 8.915-2.8594 29.819 6.0171 30.457-4.9868 3.6624-21.839-16.936-19.898-35.533-19.898 10.564-137.04 249.99-126.5 223.33 34.843-33.884-24.834-29.132-87.567-86.297-89.61-23.603 64.699-8.1089 202.34-5.0662 288.72 25.853 5.4556 24.144-16.128 25.392-34.825 24.467-2.562 64.488 10.152 60.905-19.916-17.566-15.277-31.646 15.208-60.905 4.9705v-69.695c29.328-2.2202 51.99 2.0852 76.133 4.979z"/>
  <path d="m2927.9 1176c-11.988-14.783-21.552-31.95-30.438-49.779-31.125-11.226-82.329-22.818-121.83-9.9576-27.649 12.715-22.995 57.099-71.047 49.779 13.5-115.92 220.4-114.84 223.31 9.958z"/>
  <path d="m2922.8 1390c-47.621 22.98-138.55 3.4979-203.03 9.9576 3.5054-38.282-8.5911-61.278-5.0857-99.559h192.89c6.0676 28.903 8.5806 61.269 15.228 89.602z"/>
  <path d="m2907.6 1858v119.47h-208.11c3.4861-61.507-8.5715-107.75-5.0854-169.25-4.6838-8.6894-15.877-10.987-30.458-9.9576 8.1108-8.6465 22.858-10.792 40.62-9.9572-44.832-141.36 208.61-181.94 197.94-24.903-49.574-11.753-118.59-18.17-142.12 19.932 28.11 31.915-9.0925 91.312 10.143 144.35 47.188-21.762 68.494-68.903 137.07-69.677z"/>
  <path d="m2887.3 508.93v159.29h-137.06c3.5056-58.18-8.5525-101.1-5.0662-159.29h35.533c9.9565-6.9025-10.663-25.711-10.162-39.83h76.153c4.5064 12.17 11.832 21.592 10.163 39.83h30.438zm-121.81 24.885c1.6106 36.579 7.6877 68.793 10.143 104.54h81.23c-3.1816-39.618 8.7964-64.358 5.0664-104.54-39.039-3.4384-53.885-0.016968-96.439 0z"/>
  <path d="m2877.1 230.16c-6.2935 18.843-66.757 10.69-81.21 4.9788v-9.9489c6.4802-21.847 53.099-4.332 76.133-9.9576-0.45215 7.064-0.83447 14.094 5.0762 14.928z"/>
  <path d="m2861.9 533.81c3.7405 40.179-8.248 64.92-5.0664 104.54h-81.23c-2.4553-35.754-8.5325-67.959-10.143-104.54 42.554-0.016968 57.4-3.4384 96.439 0z" fill="#fff"/>
  <path d="m2765.5 250.07h-81.229c-8.8564-43.541 44.468-26.077 76.154-29.872-3.6921 15.234 8.7578 14.638 5.0757 29.872z"/>
  <path d="m2724.8 474.09v44.792h-50.762c2.7195-19.251-9.0525-24.29-5.0662-44.792h55.829z"/>
  <path d="m2699.5 1200.9v59.737c-12.234 2.0422-11.046-9.0896-25.391-4.9792 3.928-23.754-7.9426-32.034-5.0662-54.758h30.457z"/>
  <path d="m2674.1 319.76c4.1431 25.626-32.156 11.608-45.676 19.915-3.5449 156.15 8.4929 296.99 5.0852 452.99-33.196-12.587-20.304-61.754-20.304-99.559 0-56.724 0.94312-114.44-5.0854-164.28h-65.971v-49.779c22.357-1.2849 39.254-7.9574 65.971-4.9699 16.18-76.044-25.294-135.81-10.143-179.21 22.357-7.0043 13.746 16.383 15.228 29.873 18.881-2.0512 42.789-17.881 60.895-4.9873zm-101.52 169.25c-7.8447 19.422 44.783 24.545 35.534 0h-35.534z"/>
  <path d="m2638.6 225.18v29.864c-23.8-3.2256-60.787 6.5105-76.153-4.9788v-9.9576c11.625-18.468 51.4-9.3362 76.153-14.928z"/>
  <path d="m2623.3 1997.3c-34.807 0.78345-19.942-47.422-20.286-69.694-1.4919-91.159 17.104-263.97-25.371-308.62-74.346-8.8688-158.55 16.723-213.21-4.9877 75.495-11.574 216.2-37.762 258.87 19.915-4.2317 119.33 21.384 260.55 0 363.39z"/>
  <path d="m2628.4 1395c-35.857-16.69-28.386-69.992-30.458-114.5-3.5444-76.895-0.019775-149.53-5.0859-228.99-88.171-24.111-199.96 31.609-269.01-4.9705 89.212-10.008 243.28-63.465 304.55 4.9705v343.49z"/>
  <path d="m2613.2 2629.6c-28.15-13.617-15.228-57.831-15.228-84.622v-283.75c-30.545-72.937-191.54-17.915-263.95-49.788 19.254-23.54 71.724-15.523 111.67-14.944 85.148 1.2771 155.49 4.5364 177.66 59.745-3.4753 98.393 5.0867 188.37 5.0867 288.74 0 28.799 12.675 72.401-15.229 84.622z"/>
  <path d="m2603 1489.6c-21.67-1.9835-4.8503-41.711-10.162-59.738 38.292-8.8507 27.61 52.656 10.162 59.738z"/>
  <path d="m2613.2 817.55c-87.72 8.5534-184.42 8.3066-274.1 14.936-3.3381-53.158 67.306-34.843 111.67-34.843h147.2c5.1067 6.6126 4.802 18.519 15.228 19.907z"/>
  <path d="m2608.1 489.01c9.2388 24.545-43.379 19.422-35.534 0h35.534z" fill="#fff"/>
  <path d="m2587.8 2022.2v49.788h-25.371v-49.788h25.371z"/>
  <path d="m2582.7 1315.3c13.176 49.422-31.204 42.401-20.306 89.609-31.243-35.54-117.67-15.166-172.57-14.936v-69.686c62.506-3.3785 124.91-6.9191 192.88-4.9872z"/>
  <path d="m2577.7 1171c-12.332 8.8599-70.861-70.477-126.92-29.881-10.123 29.898-41.828 38.639-65.991 54.767-26.363-116.45 181.72-141.98 192.91-24.886z"/>
  <path d="m2577.7 2340.8c1.9346 18.519-24.448 9.2082-25.39 24.886 0.038818 13.251 14.119 12.715 20.284 19.932-3.1814 84.427 8.7978 153.99 5.1057 238.93-65.372 10.587-149.85 2.4084-223.35 4.9868 7.6099-5.8215 12.411-14.391 25.372-14.945 5.5576-80.835-7.9727-180.38 20.305-238.95-12.254-15.294-14.846-52.631-45.677-34.843 9.5635-100.78 222.07-120.07 223.35 0z"/>
  <path d="m2532 847.43v39.822c-26.176 7.4043-25.125-11.881-40.599-14.928-11.969 4.8771-4.5662 28.724-15.229 34.843h-10.162c-21.67-1.9737-4.8315-41.711-10.142-59.728 25.371-0.00885 50.742-0.00885 76.133-0.00885z"/>
  <path d="m2521.8 240.12v29.864c-23.78-3.2172-60.787 6.5107-76.153-4.9705-5.0166-38.128 46.61-20.69 76.153-24.894z"/>
  <path d="m2496.4 489.01c-3.6814 11.328-4.5261 25.43-10.142 34.852h-50.763v-34.852h60.904z"/>
  <path d="m2405.1 284.92h-81.2v-24.886c30.988 3.8555 47.483-6.5192 76.134-4.9786-3.6829 15.217 8.7483 14.638 5.0659 29.864z"/>
  <path d="m2400 533.81c-22.376-1.285-39.255-7.9575-65.991-4.9789v-39.822h60.924c-3.9868 20.502 7.7959 25.541 5.0669 44.801z"/>
  <path d="m2374.6 1225.8c3.3181 23.149-11.91 28.145-35.514 24.885-5.3711-25.175 14.227-25.856 35.514-24.885z"/>
  <path d="m2349.2 1798.2c-11.733 20-11.104 52.163-10.142 84.623h-25.381c-3.083-32.894 8.8757-51.03 5.0764-84.623h30.447z"/>
  <path d="m2344.1 2385.6v134.39c-46.344-7.6428-17.34-89.193-25.371-134.39h25.371z"/>
  <path d="m2318.8 374.53v9.9489c6.4219 19.583-11.969 14.809-25.371 14.936-7.5894 143.55 16.712 318.39-15.228 438.06-99.423 0.40002-181.26 18.043-274.11 24.886 7.8943-37.447 83.409-36.648 126.9-39.822 49.8-3.6425 96.203-11.898 137.05-19.915-3.8882-82.47-3.3877-169.24-10.152-248.9h-45.686c-3.7896 61.796 8.1399 108.17 5.0764 169.25-53.58-1.1063-89.133 15.464-137.06 19.907v-179.2c-0.73657-14.009 12.44-14.366 25.381-14.928 2.71-19.269-9.0623-24.307-5.0862-44.809 30.663-1.8555 56.104 1.404 81.219 4.979 2.779 7.2256-5.9297 25.728 5.0767 24.885 17.055 5.1149 7.904-15.481 10.153-24.885 21.63-0.36609 35.504-8.332 60.915-4.979 2.9548-51.022-8.9155-87.508-5.0869-139.38 31.204-5.7106 33.138 17.302 66.011 9.9578zm-91.371 139.38c-0.58936 17.183 10.24 23.141 30.466 19.907v-19.907h-30.466zm-50.753 44.801c-15.239 6.6215-38.833 5.0638-60.905 4.9789v149.34c23.202-2.1277 43.035-7.5661 71.058-4.979-3.5547-49.609-3.9272-102.36-10.153-149.34zm-55.839-34.843c3.957 1.0979 5.9114 4.17 5.0767 9.949 14.531 0.9787 27.708 0.61279 25.381-14.936-8.9255 2.868-29.819-6.0087-30.458 4.9872z"/>
  <path d="m2298.5 284.92c-6.3032 18.843-66.737 10.689-81.21 4.9786v-9.9576c6.4902-21.83 53.109-4.3235 76.134-9.9575-0.43213 7.0724-0.84473 14.094 5.0757 14.936z"/>
  <path d="m2161.4 981.84c1.7283-46.962 86.836-36.894 126.9-29.872 14.03 48.928-91.49 13.864-126.9 29.872z"/>
  <path d="m2278.2 1439.8c-28.278-7.9827-14.914-49.507-15.238-69.686-1.5418-95.261-0.009521-216.81-15.229-298.68-92.413-12.57-198.92 44.418-258.87 0 86.924-4.2128 277.14-61.515 299.48 29.865-6.687 109.59 13.452 245.49-10.143 338.5z"/>
  <path d="m2278.2 2022.2c-23.742-10.519-19.195-50.996-20.305-74.665-3.8098-81.371-4.0742-176.1-10.162-253.88-11.998-18.101-24.87-35.336-40.6-49.778-72.383-8.0007-149.51 19.192-197.96-9.9584 90.793-4.3994 245.71-28.587 274.11 44.809-9.8972 116.03 22.249 243.5-5.0764 343.47z"/>
  <path d="m2268 2639.5c-29.917-122.06 39.628-360.73-45.686-418.14-74.592-6.5022-175.77 13.081-233.5-9.958 85.785-12.153 271.96-38.179 294.4 44.801-3.6421 97.61 5.6458 195.75 5.0764 298.69-0.16699 31.472 10.182 73.132-20.295 84.605z"/>
  <path d="m2257.9 513.91v19.907c-20.216 3.2342-31.056-2.7233-30.466-19.907h30.466z" fill="#fff"/>
  <path d="m2252.8 1514.5c-33.344 2.8344-16.152-43.89-20.305-69.686 29.23 1.2168 18.577 41.498 20.305 69.686z"/>
  <path d="m2247.7 2027.2c-1.9932 17.949 1.8855 41.669-15.218 44.818-20.58 1.9321-5.5772-31.03-10.153-44.818h25.371z"/>
  <path d="m2242.6 1350.2v89.601c-37.556 3.6431-68.593 0.9021-76.134-24.893-36.83-2.9364-58.922 8.6046-91.372 9.9573v-74.665h167.5z"/>
  <path d="m2232.5 2007.3c-59.736-2.179-113 1.9917-167.51 4.9701-3.6521-63.312 8.3755-111.25 5.0671-174.24-3.5647-18.417 21.698-8.579 25.381-19.898-18.252-23.336-22.171-76.733 0-99.55-17.604 4.2893-28.16 15.506-40.6 24.886-4.3013-85.695 174.6-81.968 172.58 14.928 5.2134 16.724-15.779 7.7615-25.382 9.9574 35.367 54.937 27.973 151.78 30.457 238.95z"/>
  <path d="m2191.9 284.92v24.894c-23.79-3.2256-60.787 6.5025-76.133-4.9787v-9.9576c6.4905-21.839 53.109-4.3235 76.133-9.9575z"/>
  <g fill="#fff">
   <path d="m2186.8 708.05c-28.023-2.5871-47.856 2.8513-71.057 4.979v-149.34c22.082 0.084961 45.666 1.6426 60.905-4.9789 6.2351 46.98 6.6077 99.729 10.152 149.34z"/>
   <path d="m2151.3 518.88c2.3269 15.558-10.84 15.924-25.381 14.936 0.82446-5.7869-1.1196-8.8598-5.0767-9.949 0.63843-10.996 21.532-2.1191 30.458-4.9872z"/>
  </g>
  <path d="m2110.7 364.57c-19.834 8.8173-84.598 16.537-121.82 24.886 3.682-15.226-8.7584-14.639-5.0764-29.873 39.716 4.196 81.357 6.5024 126.9 4.9873z"/>
  <path d="m2004.1 329.72c-3.9667-40.392 38.116-35.634 71.067-39.822 32.489 43.184-42.152 28.349-71.067 39.822z"/>
  <path d="m2075.1 2032.2v14.945c-44.704-10.672-43.477 23.72-86.296 14.928v-29.873h86.296z"/>
  <path d="m2065 563.69c-26.432-2.6979-37.635 9.5576-60.915 9.9576-3.5835-16.4-8.1591-31.83-10.152-49.779 24.36-0.99585 37.184-13.328 65.991-9.9578-1.689 19.907 9.0432 27.626 5.0764 49.78z"/>
  <path d="m2039.6 1803.2c-14.571 18.902-22.17 44.647-25.371 74.682-18.459-11.77-11.252-48.724-15.229-74.682h40.6z"/>
  <path d="m1988.8 2390.6c-5.97 62.188 14.355 150.14-15.229 189.17-4.9586-56.553-17.026-132.62-5.0759-189.17h20.305z"/>
  <path d="m1958.4 852.41c-23.202 5.4637-37.007 20.119-55.839 29.872-71.519-6.7744-152.73 29.013-203.04 9.9492 63.212-29.277 168.2-17.575 233.5-44.792v-243.93c-12.018-11.447-45.568-1.779-65.991-4.9705v-44.809c22.377-1.2851 39.275-7.9576 65.991-4.9705 3.9569-63.626-1.718-117.79-15.228-164.28 66.678-1.0467 53.717 67.056 50.762 129.43-5.047 106.29-3.4862 244.9-10.152 338.5zm-55.839-278.76c2.7882 8.7406 40.963 10.783 30.457-9.9576-2.7887-8.7407-40.963-10.783-30.457 9.9576z"/>
  <path d="m1963.5 329.72c-31.674-2.8424-49.593 7.7788-76.143 9.9576 2.0822-12-9.2778-10.817-5.0756-24.885 26.608 1.1235 83.517-31.234 81.219 14.928z"/>
  <path d="m1953.3 1449.8c-28.278-8.5878-14.885-48.75-15.229-69.686-1.423-87.405-7.0785-183.94-5.0757-273.8h-208.12c0.10803 38.715 27.325 101.74 0 134.4-25.882-7.3029 2.6902-37.976-5.0861-59.729-11.812-23.26-19.186-50.877-15.219-89.61 84.617-3.2938 162.93-12.774 253.79-9.9491-10.015 124.44 22.18 260.18-5.0662 368.37z"/>
  <path d="m1953.3 2022.2c-29.722 20.63-96.242 5.1665-142.12 9.9576-7.5504 7.5493-8.1785 21.856-10.152 34.843-39.815-7.0471-85.442 21.413-96.439-14.928 13.678-11.472 48.955-1.7612 71.057-4.97 15.671-61.873-4.5265-131.62 0-199.13-2.5728-19.099 30.486-3.2767 30.457-19.898 5.7245-23.873-19.362-17.541-25.381-29.873-1.394-39.532 23.477-53.311 40.6-74.664-47.129-10.468-50.674 45.294-81.21 34.843-4.0056-100.44 188.94-71.363 177.66 29.872-13.776 3.0728-40.276-6.3315-45.686 4.9876v14.928c-4.0656 18.919 24.006 6.3323 35.533 9.9576 3.368 56.434-6.745 126.08 5.0767 174.22h10.152c8.1097-81.72 38.037-289.48-25.382-328.55-70.341-14-162.05 43.354-192.89-9.9491 71.028-9.2596 207.87-29.524 248.72 19.907-6.5101 119.32 15.474 236.86 0 348.45z"/>
  <path d="m1953.3 2639.5h-187.81c-25.637-3.8213 15.994-13.762 10.152-29.856-5.1449-128.55-21.581-269.94 60.915-323.58-59.678-0.4165-98.274 46.282-106.59 79.635-31.861-4.0852 2.2588-38.826 0-59.728 41.16-26.001 71.303-62.818 147.21-54.758 32.342 24.698 25.675 87.652 25.371 144.35h20.305c27.207-40.622-4.2513-108.16 5.0765-164.27-65.471-14.392-141.05 4.3574-208.12 4.9697 9.4946 43.252 4.5366 73.968-25.371 89.61-10.997-30.715-1.2371-81.746-10.152-114.5 86.404-3.2085 172.19-7.0129 263.94-4.9873-3.4269 149.39 8.63 283.6 5.0664 433.1z"/>
  <path d="m1938.1 1524.4c-37.625 11.498-29.731-47.448-10.162-49.78 9.1406 10.962 4.4475 35.473 10.162 49.78z"/>
  <path d="m1938.1 2101.9h-30.458v-44.8h25.381c-3.9862 20.494 7.7862 25.532 5.0764 44.8z"/>
  <path d="m1933 563.69c10.506 20.741-27.669 18.698-30.457 9.9576-10.506-20.741 27.668-18.698 30.457-9.9576z" fill="#fff"/>
  <path d="m1922.8 1370.1c13.756 48.341-24.724 45.448-20.305 84.622-39.766-2.4934-71.735 2.6555-106.59 4.979-6.7454-37.95-0.85413-55.056 15.229-79.635 30.448-9.9746 69.673-11.32 111.67-9.9662z"/>
  <path d="m1917.8 1190.9c-61.554-3.429-110.16 12.341-121.82 69.695-20.903-7.702-23.869-32.996-40.599-44.8 14.079-62.052 125.78-80.588 162.42-24.895z"/>
  <path d="m1882.2 384.48c-22.642 50.809-109.89 38.264-162.43 59.737v-29.864c56.486-7.6596 102.02-26.068 162.43-29.873z"/>
  <path d="m1872.1 912.14v39.822c-22.799-2.4511-38.038 2.5279-55.839 4.9786v-39.822c17.811-2.4594 33.04-7.4213 55.839-4.9788z"/>
  <path d="m1856.9 349.63c-31.675-2.8512-49.594 7.7789-76.144 9.9491 1.4341-8.0341-4.8007-8.5701-5.0758-14.936 10.997-22.4 44.596-22.639 76.134-24.894-3.6829 15.234 8.7681 14.655 5.0861 29.881z"/>
  <path d="m1851.8 593.55c-6.1176 18.885-43.182 7.4383-60.915 14.936v-44.801c15.995 0.4596 38.293-18.485 50.763-4.9789 7.1475 21.932-16.692 13.481-30.448 14.936-4.8706 24.681 32.077 8.3575 40.6 19.907z"/>
  <path d="m1775.6 1280.5c-21.915 24.971-30.88 62.648-35.534 104.55-42.004-0.29773-10.584-72.588-20.305-104.55 15.326-6.7062 40.511-6.7062 55.838 0z"/>
  <path d="m1765.5 613.47c-26.422-2.6979-37.625 9.5577-60.905 9.9576-3.5835-16.4-8.1591-31.838-10.152-49.779 24.36-0.99585 37.183-13.328 65.991-9.9576-1.6981 19.907 9.0334 27.626 5.0666 49.779z"/>
  <path d="m1658.9 374.53c1.4334-8.0428-4.8008-8.5706-5.076-14.936 10.702-21.022 40.227-23.6 71.067-24.886 31.803 41.788-37.9 28.613-65.991 39.822z"/>
  <path d="m1694.4 2525c-8.3066-39.958-10.3-86.137-10.152-134.39h30.447c7.3054 56.665 5.813 100.56-20.294 134.39z"/>
  <path d="m1709.7 1778.3c-37.851-1.0475-13.343-63.252-20.305-94.58 36.319 11.021 21.788 55.898 20.305 94.58z"/>
  <path d="m1714.7 1813.2c-8.9448 42.655 4.8308 107.62-20.295 134.41-37.576-18.783 1.6498-82.111-10.152-124.45 14.856 1.2935 15.592-11.252 30.448-9.9576z"/>
  <path d="m1694.4 424.31c-42.034 121.4 15.051 339.98-35.534 452.99h-25.372c-5.0165-33.132 4.8115-51.695 20.295-64.716v-164.27c-3.7804-11.234-28.474-1.949-40.61-4.9872-3.2602 52.979 8.7678 90.972 5.0859 144.37-44.91-2.5704-77.832 6.6298-116.75 9.9578 3.1714-39.618-8.8174-64.359-5.0764-104.55 12.342-6.1445 32.942-4.1955 35.534-19.907 6.4214-19.583-11.969-14.817-25.381-14.936 3.5933-18.46-8.6704-21.362-5.0764-39.83 24.36-1.0046 37.173-13.319 65.991-9.9491 4.8894 23.047-21.003 15.907-30.458 24.894 2.1897 11.132 25.018 2.0168 35.534 4.979-3.5348 25.038 8.6108 34.698 5.0762 59.745h-30.457v69.678c8.6899 11.396 38.744 1.8384 55.838 4.9873-7.3445-62.494-15.818-123.88-20.305-189.17h71.058c11.782-28.264 1.7378-77.942 5.0763-114.5-4.6736-8.6898-15.867-10.988-30.457-9.9491 7.4425-36.58 34.179-23.345 65.991-34.852zm-81.22 194.13c7.2854 8.4174 44.321 3.932 45.686-9.9491-14.05 4.4681-47.64-10.238-45.686 9.9491z"/>
  <path d="m1669 1459.7c-49.054 1.6681-72.481 28.477-126.9 24.894-4.2806-24.018-6.951-49.601-10.152-74.665 36.025-2.8334 70.478-7.2253 111.67-4.9784-7.6199-37.329 0.60828-90.205-25.372-109.51 2.6315-17.336 30.497-9.9146 25.372-34.86-10.997-49.941-69.782-39.694-111.67-24.886-3.2695 20.034 6.598 52.936-5.0758 64.716h-15.229c-21.807-8.4676 2.7394-62.418-35.523-54.758 5.9597-75.414 132.53-70.214 167.51-24.886 12.744-36.792-2.5435-59.771-20.306-79.652-63.497-2.5275-110.09 11.515-167.5 14.937-6.3429 38.596 12.931 102.3-10.152 124.45-33.953-18.137-6.2255-96.776-15.229-139.38 65.136 0.55286 137.12-40.673 192.89-29.864 68.229 13.217 48.592 86.35 50.762 169.25 4.4676 16-16.731 6.834-15.228 19.915 2.7291 53.711 7.4126 105.54 10.142 159.27z"/>
  <path d="m1658.9 608.49c-1.3645 13.881-38.41 18.374-45.686 9.9491-1.963-20.187 31.626-5.481 45.686-9.9491z" fill="#fff"/>
  <path d="m1628.4 2654.4h-137.05c56.054-47.873-28.906-200.8 35.534-238.95-5.7936-19.218-21.876-28.324-25.382-49.787 11.753-16.673 24.105-32.767 35.534-49.788-45.214-12.698-64.302 26.426-81.21 24.903-10.457-44.247 49.918-57.899 86.286-49.788 55.996 12.502 64.773 86.257 60.915 154.32h25.371c8.4539-54.792-8.5326-127.66-10.153-189.17-64.902 11.021-178.05-25.268-203.04 24.903-8.1101-13.634-10.448-32.894-10.142-54.776h218.26c15.415 123.99 41.72 316.2 5.0767 428.12z"/>
  <path d="m1643.7 2042.1h-121.82c8.8077-72.861-26.824-164.63 15.228-209.08 5.2135-16.724-15.788-7.7452-25.381-9.9575v-59.746c-37.929-0.698-26.501 47.039-60.904 49.788-16.368-54.606 107.69-132.22 157.35-54.758-3.0146-23.584-4.1538-49.021-15.229-64.716h-152.28c-14.551 27.209 2.5428 85.456-20.295 104.54-33-7.4639-6.9025-72.886-15.219-104.54 31.636-27.744 220.21-47.941 238.56 4.9707 29.004 83.669-21.503 245.9-0.019653 343.49z"/>
  <path d="m1633.5 897.21c3.6821 15.226-8.7675 14.639-5.0862 29.864-68.062-5.3279-133.8 18.085-187.81 9.9572-8.4738-30.638 25.273-16.502 40.62-19.915 41.16-9.1579 85.579-18.145 137.05-19.907h15.228z"/>
  <path d="m1628.4 2106.9c-34.797 7.5832-32.392-21.328-40.61-39.83h35.533c-3.6036 18.469 8.6702 21.379 5.0767 39.83z"/>
  <path d="m1623.4 394.43c-31.665-2.8426-49.584 7.7789-76.133 9.9576 1.4336-8.0426-4.7911-8.5706-5.0758-14.928 10.996-22.4 44.596-22.639 76.143-24.886-3.7018 15.209 8.7483 14.63 5.0657 29.856z"/>
  <path d="m1598 449.2v19.898c-49.427-9.0128-105.59 33.66-131.97 0 36.604-13.872 82.29-18.851 131.97-19.898z"/>
  <path d="m1526.9 409.37c-31.666-2.8512-49.594 7.7872-76.134 9.9489 1.4335-8.0339-4.8016-8.5703-5.0759-14.928 10.996-22.409 44.596-22.638 76.133-24.894-3.6819 15.217 8.7683 14.638 5.0767 29.873z"/>
  <path d="m1516.8 2077c-20.393 11.524-62.535 1.7275-91.363 4.9873-35.887-42.818-19.224-163.65-15.238-228.99h20.314c27.335 52.179-4.2318 131.57 5.0759 199.12 25.764 9.5747 68.033 2.9785 81.21 24.886z"/>
  <path d="m1496.5 658.27v24.894h-65.991v-49.779c17.595-2.1533 52.402-13.813 60.905 4.979-0.68726 14.255-34.836-4.3068-35.524 9.9573-3.1027 19.618 27.865 5.847 40.61 9.9491z"/>
  <path d="m1496.5 1325.3c-6.2251 25.422-35.229 28.511-45.686 49.788-6.9222 42.996 1.7181 101.24-20.305 129.42-6.49-51.209-15.081-147.51 10.143-184.18 18.655 1.6086 44.94-4.2557 55.848 4.9705z"/>
  <path d="m1430.5 2410.5c0.029663 61.422 6.1265 128.79-20.315 164.27-8.6894-41.754-8.1299-117.44 0-159.3 9.1118 0.63843 10.712-6.0852 20.315-4.9707z"/>
  <path d="m1420.3 439.23c-31.665-2.8428-49.594 7.7789-76.134 9.966 1.4334-8.0428-4.8008-8.5703-5.0859-14.945 11.645-21.779 42.809-24.392 76.143-24.886-3.682 15.226 8.7583 14.638 5.0765 29.864z"/>
  <path d="m1354.4 2052.1c-33.206-2.689-57.783 3.0728-86.296 4.9878-6.2048-83.508 12.774-191.74-10.152-258.86-41.297-8.9785-5.6652 57.499-50.753 44.801-16.426-17.2 15.69-70.094 35.534-84.622 34.836-0.97864 60.797 6.7489 86.296 14.945 6.7748-10.221-15.808-34.094-20.305-49.788h-137.05c0.29456 56.716-1.6304 111.24-10.153 159.3-27.305-8.4262-15.219-52.827-15.219-84.623v-94.58c63.369-1.2424 134.22-20.562 197.96-4.9873 22.23 99.312 4.3892 237.93 10.133 353.43z"/>
  <path d="m1329 2072c-3.2205 16.757 6.5393 46.23-5.0765 54.758-22.927-2.4084-12.48-37.549-20.305-54.758h25.382z"/>
  <path d="m1308.7 996.77v44.792h-45.686v-39.821c16.721-0.21301 25.283-8.4004 45.686-4.9708z"/>
  <path d="m1298.5 703.07c-21.611-2.9446-33.569 3.5831-50.762 4.9788v-39.83c16.711-0.21265 25.273-8.4002 45.686-4.9702-1.1198 16.026 8.974 21.064 5.0759 39.822z"/>
  <path d="m1288.4 1534.4c-14.679 20.528-55.514 41.694-91.362 24.894v-9.9575c14.325-20.8 57.998-12.809 91.362-14.936z"/>
  <path d="m1263 1385.1c-11.173 8.9366-36.172 4.3406-50.752 9.9579-3.761 39.439 10.987 97.04-15.229 114.49-11.802-36.546-1.718-94.555-5.0757-139.39 26.883-8.7404 62.289-7.7362 71.057 14.945z"/>
  <path d="m1242.7 2077c-28.298 10.408-55.514 21.89-86.296 29.872 3.682-15.226-8.7483-14.646-5.0763-29.872h91.372z"/>
  <path d="m1227.4 683.15v39.822c-19.127-3.8296-24.272 6.0767-40.61 4.9786 2.7195-19.26-9.0624-24.298-5.0764-44.8h45.686z"/>
  <path d="m1222.4 1872.9c4.0743 17.268-7.5702 19.132-5.0765 34.843h-25.381v-34.843h30.457z"/>
  <path d="m1171.6 2052.1h-15.228c-20.109-30.434-8.0806-113.57 5.0759-144.37 16.123 32.367 18.528 104.57 10.152 144.37z"/>
  <path d="m1166.5 2425.4c-1.7577 44.75 8.994 101.75-20.305 119.48-11.792-29.941-1.7382-81.286-5.0862-119.48h25.391z"/>
  <path d="m1125.9 2062.1c-29.338-2.2295-52.01 2.0942-76.134 4.9702-7.7959-76.98 0.18665-169.43-20.305-233.96-36.309-2.425-23.918 42.92-35.534 64.716-36.29-9.8556-21.62-91.559 0-104.52 20.383-4.9021 44.537-6.1023 71.057-4.9876-3.7897-19.514-19.804-27.046-25.381-44.8-32.785-2.6897-76.949 5.7701-101.52-4.9874 44.724-26.86 109.16-5.9659 172.58-9.958 4.772 111.48 10.849 221.65 15.229 333.53z"/>
  <path d="m1115.8 981.84c3.682 15.235-8.7681 14.647-5.0859 29.865-56.104 6.3656-95.535 29.098-147.2 39.822 12.725-60.529 95.732-52.137 152.29-69.686z"/>
  <path d="m1100.6 767.77v119.48c-14.865-1.3022-15.602 11.251-30.457 9.9576v-109.52c-55.593-3.0808-2.9456 99.993-35.533 119.46-19.343-29.149-11.793-84.673-15.229-129.43 27.758-2.6468 48.769-11.906 81.219-9.9573z"/>
  <path d="m1090.4 2086.9v54.758h-25.381c2.2971-23.822-3.6722-39.54-15.229-49.788 3.7804-11.208 28.464-1.9314 40.61-4.9697z"/>
  <path d="m1049.8 717.99v34.852h-30.457v-29.864c11.959 0.11072 14.944-8.5787 30.457-4.9872z"/>
  <path d="m1034.6 2091.9c-20.787 14.477-41.356 29.141-81.21 24.903-3.6821-15.226 8.7582-14.647 5.0761-29.873 29.328-2.2126 52 2.0938 76.134 4.9697z"/>
  <path d="m1029.5 1385.1v29.856c-16.358-2.2125-27.502-9.5231-45.686-9.9487-11.753 21.652-1.7571 64.648-5.076 94.58-15.514-3.5996-18.499 5.09-30.457 4.9794 2.4936-42.358 8.3846-81.38 10.152-124.44 27.678-2.2555 41.709 8.8682 71.067 4.9784z"/>
  <path d="m999.03 767.77c-15.514-3.5916-18.499 5.0978-30.458 4.9872v-29.873c22.583-3.8976 32.451 4.6899 30.458 24.886z"/>
  <path d="m973.66 1350.2h-10.152c-18.822-1.6512-11.164-55.15-5.0766-64.708h10.152c18.813 1.651 11.164 55.158 5.0765 64.708z"/>
  <path d="m958.42 2450.3v164.26c-16.476-2.876-23.614 3.3874-35.524 4.9707-3.5051-61.508 8.562-107.73 5.0663-169.24h30.458z"/>
  <path d="m927.96 1051.5c-28.189-13.804-15.228-58.154-15.228-84.622 0-103.93 8.5914-216.81 5.076-323.57-58.754-11.055-87.179 54.792-126.9 29.873 1.0109-22.409 50.83-43.83 91.362-49.78 18.625-2.7318 41.022 2.0598 60.914 0-9.7695 140.13 38.214 324.24-15.229 428.1z"/>
  <path d="m943.2 2072c-27.973-2.9961-13.618-44.681-15.228-69.694-2.2485-35.107-17.222-81.304 5.0759-99.55 28.17 6.1194 13.785 54.886 15.229 84.622 1.4824 30.665 18.027 69.746-5.0765 84.623z"/>
  <path d="m948.27 1862.9c-14.345-4.102-13.147 7.0129-25.371 4.9873-3.5153-34.97 8.581-54.639 5.0663-89.61 21.581 13.677 17.026 52.988 20.305 84.622z"/>
  <path d="m902.58 797.66h-20.305c1.7275-15.439-11.753-23.788 0-34.852 21.022-2.3491 13.49 23.277 20.305 34.852z"/>
  <path d="m892.44 1046.6c-13.255 41.754-72.402 38.52-106.59 59.728 2.4846-15.711-9.1503-17.575-5.0856-34.843 37.978-7.566 70.301-20.664 111.68-24.885z"/>
  <path d="m882.28 1300.4c-31.243 7.5321-74.768 3.004-91.362 24.894-0.21637-16.391-8.5716-24.775-5.0766-44.809 26.55-2.1706 44.469-12.8 76.134-9.9492 8.3653 8.3917 11.026 22.366 20.305 29.864z" fill="#fff"/>
  <path d="m877.21 568.66c4.0642 17.277-7.5605 19.141-5.0765 34.852-71.303-6.8682-98.343 29.677-147.21 44.809-11.753-11.073 1.7278-19.421 0-34.852 39.902 10.928 32.932-24.128 50.752-34.851 25.175-6.4257 24.94 12.051 45.686 9.9575 11.007 0.83386 2.288-17.651 5.0765-24.886 21.62-2.9446 33.58 3.5831 50.772 4.9701z"/>
  <path d="m872.13 1096.3v39.822h-45.686v-34.851c16.711-0.21301 25.273-8.4002 45.686-4.9708z"/>
  <path d="m861.98 2106.9c-6.0678 18.937 14.492 63.984-15.229 59.746-20.02 3.0386-5.9794-27.328-10.152-39.83-45.067-11.022-36.152 30.919-81.21 19.916 3.5939-18.468-8.6698-21.362-5.0862-39.831h111.68z"/>
  <path d="m856.9 812.58c-15.513-3.6003-18.498 5.0808-30.457 4.9702-3.3087-23.158 1.7869-38.077 25.371-34.843-0.10809 11.736 8.7583 14.664 5.0859 29.873z"/>
  <path d="m841.67 1594.1c3.6821 15.217-8.7586 14.646-5.0765 29.864-25.411-3.353-39.284 4.6127-60.915 4.9785v-34.842h65.991z"/>
  <path d="m806.14 1937.6c-3.7804 11.217-28.464 1.9488-40.6 4.9701-7.9822 48.605 19.176 131.65-20.305 149.34-8.179-55.021-10.094-116.19-10.152-179.19 22.082-0.085449 45.666-1.6428 60.915 4.9703 0.68732 9.2767 3.3289 16.638 10.143 19.915z"/>
  <path d="m801.06 807.6v24.886c-21.002 4.0088-26.049-7.6345-25.382-24.886h25.382z"/>
  <path d="m745.23 2644.5c-5.2139-61.55-15.052-170.72 5.0663-224.02 13.992 24.153 13.294 73.422 15.238 114.51 2.0034 42.196 10.467 94.58-20.305 109.51z"/>
  <path d="m719.85 817.55v29.873c-21.788-4.7836-30.242 3.5232-25.372 24.885-13.412 0.12732-31.812-4.6468-25.381 14.928h-50.752c-2.0818-11.992 9.2684-10.817 5.0663-24.886h30.457c4.1928-14.068-7.1578-12.893-5.0765-24.885 18.283 1.3445 35.112 1.2424 30.458-19.915h40.6z"/>
  <path d="m699.55 628.39c-3.682 11.336-4.5262 25.43-10.152 34.852-47.257-13.166-36.869 30.213-71.057 29.864-14.158-20.221-15.523-31.081 0-49.779 42.848 10.511 44.862-19.056 81.21-14.936z"/>
  <path d="m684.32 1624v29.873c-26.432-2.6813-37.625 9.5572-60.915 9.9491 3.6821-15.226-8.7483-14.639-5.0662-29.865 24.36-0.99536 37.164-13.319 65.981-9.9572z"/>
  <g fill="#fff">
   <path d="m669.09 1798.2v34.843c-39.696 2.562-43.584 40.231-71.067 54.776-22.416-7.8984-4.3005-55.516-10.152-79.652 24.89-5.4807 58.097-2.7832 81.219-9.9666z"/>
   <path d="m669.09 2320.9c-0.019531 44.784-26.284 63.832-40.61 94.58-3.3678 92.903 8.6794 170.7 5.0765 263.83-134.36 2.9104-281.69 13.115-406.08 9.9573-9.6221-108.38-12.97-222.9-20.305-333.52h55.839v293.69c13.481-0.033447 28.984 1.8987 35.533-4.9697 11.831-84.639 1.6887-190.81 5.0765-283.75h45.676v283.75c7.0402 11.353 35.337 1.8633 50.762 4.9697-3.4862-107.97 8.5717-200.67 5.0856-308.63 26.619 3.7524 70.311-9.209 81.21 9.9568-33.511 6.9792-37.527 42.835-45.686 74.665 5.4002 11.302 31.911 1.8977 45.686 4.9871v209.06c7.0398 11.371 35.327 1.8638 50.752 4.9878-2.7293-106.84-7.4228-211.76-10.152-318.59 16.142-0.76587 22.328-11.285 40.61-9.9744 3.3774 102.9-6.7654 219.03 5.0759 313.64 27.218-11.584 15.229-71.593 15.229-109.52v-119.46c15.376-16.443 40.934-22.902 50.752-44.8-26.147-7.396-21.827 15.09-45.676 9.9404v-44.8c25.391 0.016357 50.772 0.016357 76.143 0.016357zm-218.27 139.4c-1.1196-3.8892-4.2512-5.8044-10.152-4.9871 3.3682 54.792-6.7358 122.76 5.076 169.25 22.22-28.443 23.035-129.46 5.0765-164.27z"/>
  </g>
  <path d="m648.79 1469.7c-39.412 14.451-8.9348 97.44-30.458 129.43-25.479-1.1489-16.298-47.711-15.229-74.673 1.1295-28.503-2.0617-62.07 15.229-69.686 19.637-4.3325 18.067 12.162 30.458 14.928z"/>
  <path d="m592.96 713.02c-10.978 4.1704-17.31 12.894-35.534 9.9573 3.6821-15.234-8.7681-14.647-5.0862-29.873 15.239-14.536 47.002-12.749 40.62 19.915z"/>
  <g fill="#fff">
   <path d="m460.98 927.08c1.8558-39.992 2.3173-78.606-25.371-89.601 34.552-17.558 59.334-44.698 116.74-39.822-3.3286 31.575 6.6963 76.256-5.0759 99.559-27.659 11.03-55.299 22.094-86.296 29.864z"/>
   <path d="m552.34 1151.1c-30.594 0.14441-62.495 1.5575-86.286-4.9703 1.1292-64.163-6.4511-119.8-10.153-179.22 17.674-32.443 64.125-36.681 86.296-64.716 23.516 63.226 3.506 169.13 10.143 248.91z"/>
  </g>
  <path d="m552.34 1205.8c-19.892 12.009-38.106 25.685-60.905 34.843-5.1059-6.6042-4.8016-18.51-15.229-19.898 18.391-11.464 54.906-36.792 76.134-14.945z"/>
  <path d="m511.74 1315.3v19.924h-40.619c10.624-9.5065 24.242-16.06 40.619-19.924z" fill="#fff"/>
  <path d="m481.28 1200.9c-30.182 13.685-56.545 51.583-96.439 39.821 26.304-17.472 50.802-57.192 96.439-39.821z"/>
  <path d="m445.75 2624.6c-11.812-46.495-1.7078-114.46-5.076-169.25 5.9013-0.81714 9.0233 1.0984 10.152 4.9876 17.958 34.809 17.143 135.82-5.0765 164.27z"/>
  <path d="m455.9 1409.9c-5.3217 114.26 11.959 250.67-40.6 318.58-34.601-4.0594-50.468 10.256-76.143 14.945 7.7661-40.511 66.482-31.047 81.21-64.717-34.611-9.0721-13.069-51.396-15.219-84.63-4.0352-17.541-23.859 15.072-25.381 0-1.3644-50.562 18.754-112.16-15.218-139.39 26.618-18.681 50.487-40.086 91.352-44.792z"/>
  <path d="m252.87 2236.3c-1.1196-16.025 8.9837-21.064 5.0765-39.83 20.707-1.26 25.067-18.554 50.762-14.928 11.694 31.583-21.512 52.724-55.838 54.758z"/>
  <path d="m308.7 1738.5c4.0747 17.269-7.5605 19.15-5.0764 34.861-15.779-4.4346-23.643-16.639-40.6-19.932 14.041-6.1279 27.169-13.166 45.677-14.929z"/>
  <path d="m242.71 1753.4c8.2871 6.8683-3.5543 36.052-5.0669 49.788-12.096-8.0425-22.376-17.89-35.533-24.885 13.176-8.6387 41.66-2.2899 40.6-24.903z"/>
  <path d="m222.4 2206.4c-1.8263 19.796-5.459 37.796-20.305 44.817-28.464-13.37-7.1672-44.868 20.305-44.817z"/>
  <g fill="#fff">
   <path d="m166.57 2136.7c-13.422-49.898-11.33-115-15.229-174.22 12.705-4.153 19.932-13.651 35.534-14.945-9.495 64.852 31.115 159.34-20.305 189.17z"/>
   <path d="m191.95 2679.3h-35.524c6.2843-90.81-15.67-180.4 0-263.83 36.83 20 22.956 83.134 25.371 129.44 2.465 47.013 8.1005 95.431 10.152 134.39z"/>
  </g>
  <path d="m197.02 1409.9c213.59-118.26 469.79-190.75 736.01-258.86 359.67-92.001 715.41-169.46 1162.4-174.22-101.4 16.937-182.34 34.741-294.4 39.822-226.06 10.264-444.92 79.737-654.79 124.45-215.22 45.864-420.13 101.06-614.19 164.28 39.805 1.5062 104.4-4.3745 157.35-19.907 16.436-4.8254 31.056-19.702 45.686-24.902 58.646-20.8 112.35-3.9147 182.73-14.928 62.358-9.762 136.24-48.579 213.18-29.873 41.425 125.8-9.4946 266.51-10.152 398.24 74.877-9.5237 146.19-22.562 223.34-29.864v-69.695c-12.008-11.446-45.558-1.7699-65.99-4.9702 2.8669-22.732-9.0043-31.005-5.0765-54.766 34.866-2.3063 66.826-7.4723 106.59-4.9792-12.862-62.29 11.753-181.24-45.686-189.17-36.3-5.0124-71.911 44.231-55.838 99.559-105.11-30.554-42.74-172.44 71.057-119.47 11.576-6.8934 1.8951-34.639 5.0863-49.779-60.512-1.2513-102.61 15.54-157.35 19.923 0.039551 48.163 4.6642 100.8-15.228 129.42-8.3066-43.277-10.29-92.776-10.152-144.35 74.513-11.549 138.28-33.651 218.26-39.83-3.5841 109.71 8.4636 204.1 5.076 313.61 5.2136 16.732-15.778 7.754-25.381 9.9575 4.2606 32.332 2.9454 70.121 10.152 99.559 73.384-6.0255 142.54-16.187 218.27-19.915 14.502-9.6085-20.924-59.788 5.0757-64.707 33.953-5.1063 17.742 38.996 25.371 59.728 346.68-18.766 726.46-20.494 1091.3-49.78 194.46-15.608 421.84 0 639.56 0 232.02 0 470.12-3.932 670.02 4.9788 98.972 4.4004 197.26-22.272 289.34 24.886-56.722 0.73999-114.66 14.527-172.59 9.9654-26.019-2.0592-52.127-17.37-71.047-19.924-140.07-18.903-332.47 0-517.74 0-530.51 0-990.09 22.655-1487.3 44.809-335.57 14.944-645.84 64.92-949.2 99.567-77.596 8.8597-149.41 10.026-223.34 24.885-67.905 13.651-135.74 32.665-203.03 44.8-135.84 24.52-270.83 38.333-385.78 84.623-30.732 12.383-80.866 22.307-86.296 64.724 160.52-83.176 415.35-117.04 659.87-134.43 43.948 83.942 5.5776 221.08 15.229 333.53h-65.991c-1.3257-70.742-25.342-156.17 15.229-199.11-5.8424-17.523-28.788-18.238-35.534-34.86-11.213 0.61279-2.15 21.107-5.0765 29.873-15.778-4.4336-23.642-16.638-40.599-19.915 6.4802-35.124 37.477-46.213 71.058-54.758-0.019897-48.375-54.091-22.757-86.296-19.915-11.95 5.6685 18.164 58.894-5.0663 59.729-36.81 9.5576 6.3428-59.312-30.458-49.771-32.42 13.583-11.399 57.847-10.152 84.623 3.3286 71.762-0.46155 156.02 5.0765 224 4.811 17.984-19.991 6.9451-30.457 9.957v49.789c-21.297-12.298-66.011-1.6426-81.21-19.915-6.5393-32.962 52.028-2.0767 60.914-19.916 9.4944-22.587-20.168-6.783-15.219-24.885-10.761-39.243 23.192-122.33-20.315-129.44-32.057 23.736 29.662 118.28-20.295 129.44-23.437-46.708-3.5739-135.89-10.152-199.12 2.2874-13.864-27.659 3.9062-25.382-9.9576v-79.652c-62.78-5.5828-32.647 121.99-30.457 169.25 2.3469 50.614-1.8162 98.904 0 139.38-23.3 4.6045-24.527-12.451-45.676-9.9402 9.3867 27.379 56.938 43.617 35.534 84.605-38.813 3.2256-14.541-55.422-55.848-49.771 17.703-80.75 4.8206-168.05 5.0862-258.85-53.08 34.222 9.4356 181.82-35.534 224-8.5518-81.414-13.609-202.5 15.229-263.85-16.083-17.702-46.354-6.1877-65.981 0 49.093 90.724-4.1332 249.12 10.143 353.44-32.382-13.831-30.242-15.243-55.839 4.9702-19.283-35.005 11.763-34.06 35.534-39.814 1.4431-21.327-18.165-22.008-35.534-24.902 41.788-56.92-13.667-209.19 35.534-258.85-16.947-8.1446-71.214-10.238-81.21 4.9876-9.2397 27.294 21.149 15.762 20.295 34.826-11.91 79.592 21.297 203.42-40.61 233.98-26.608-61.856 2.8573-178.69-15.219-248.91-59.54 14.196-37.399 107.52-40.61 179.21-1.365 30.502-9.1905 59.473-5.0766 84.622-28.778 2.6719-39.353 5.9146-60.905-4.971-3.5052 44.912 8.5816 74.554 5.0765 119.46 241.16-36.638 482.8-89.243 741.08-104.54 119.5-7.0644 241.9-19.396 365.47-24.886 483.64-21.541 989.78-31.413 1467-69.694 264.45-21.226 547.81 7.2927 832.45-4.9707 280.6-12.102 561.69-8.1953 807.06-4.9873-10.467-12.945-32.814-14.281-45.677-24.885 3.6626-60.01-8.3652-104.64-5.0854-164.27 52.274 0.17053 22.877 80.435 30.477 124.44 13.638 30 36.761 22.775 45.676 49.788 10.908 33.081-31.567 70.597 10.143 89.593-72.491 54.707-40.364 187.27 5.0859 243.92 20.236-43.073-16.555-94.333-15.228-119.47 6.2354-2.1787 10.417-6.3657 10.143-14.928 37.301-13.949 83.821 3.2937 101.52 24.885 2.3374 108.88 9.2988 213.24 10.143 323.58-29.053 37.864-104.44 30.307-172.57 29.856 11.332-27.047 58.489-18.971 96.438-19.916 36.279-127.49-64.911-184.59-91.363-278.76-12.498-44.511-23.141-166.21 20.286-179.19-8.7681-23.319-20.845-40.043-5.0669-64.725-1432.4-0.97827-2829.6 32.613-4086.1 204.09 69.536 31.064 138.12 2.3403 208.12-4.9697 71.096-7.4302 144.45 1.6758 218.26-4.9878 211.64-19.081 430.04-51.082 644.65-54.758-3.4164 139.42 8.6405 263.66 5.0765 403.21h-106.59c13.216-103.18-23.761-255.59 40.6-308.63-38.999-56.903-66.747 21.711-86.296 44.801-51.548-74.401 103.83-121.42 121.83-44.801v-69.686c-49.328-1.9319-93.189 1.532-137.05 4.97-25.872 14.46-15.023 64.912-25.371 94.58-31.95-5.1663-7.8254-65.345-25.381-84.622h-25.371c-8.1986 119.73-10.084 245.65-10.153 373.34h-71.067v-199.11c-3.0436-12.945 2.0422-17.915 15.229-14.945-21.395-24.434-36.466-86.035 20.305-99.55-49.004-28.442-81.818 10.46-101.51 39.814-10.329-46.724 46.668-65.78 91.362-74.665-24.468-8.9272-83.655-9.1062-101.52 4.9878-10.418 26.298-2.8865 70.162-15.229 94.58-18.999-21.191-11.37-68.503-15.228-104.54-16.476-2.8938-23.614 3.3874-35.524 4.97-14.325 108.74-8.8563 236.91-15.228 353.44h-60.905c10.889-71.346-3.8003-155.6 10.142-219.03 5.9306-26.928 32.687-44.894 15.229-69.694-7.7467-15.643-38.921-8.2808-60.914-9.9407 8.9638-28.86 57.399-30.29 81.219-29.873 3.6817-41.771-58.136-19.32-91.362-24.903-17.723 19.133 0.57959 73.584-25.381 84.639-28.818-7.6765 11.223-53.346-10.152-69.711-44.351-4.0256-23.859 75.431-25.381 109.52-3.5836 79.908-12.716 176.16-15.219 248.91 537.3 20.23 1133.7 19.362 1680.1-4.9873 193.74-8.6299 401.47-1.4297 598.97-9.9404 376.91-16.256 750.92-33.158 1116.7-19.932-750.76 49.635-1526.9 30.97-2309.6 64.716-444.36 19.166-886.92-13.967-1319.8 14.945 408.98 24.715 819.49 50.75 1258.8 69.686 250.03 10.792 589.72-18.366 862.92 0-24.772-1.6594 0.28467 12.264 25.371 4.9876-44.341 12.868-76.919-10.485-111.67 0-477.6 35.388-998.03 55.473-1497.4 19.915-233.31-16.622-490.46-15.591-705.56-44.8-65.147-8.8599-131.66-35.771-197.96-34.843-46.806-70.094-1.9147-192.04 15.228-273.79-10.525-17.966-44.027 9.2432-50.762-4.9871-7.2656-50.265 41.523-45.567 25.382-104.54-5.5381-17.601-24.92 17.6-30.457 0-7.5408-37.252 27.226-33.031 30.457-59.746 4.8108-35.439-9.7306-70.478-5.0862-104.52 2.3955-17.583 16.78-29.141 20.305-44.817 9.9265-44.213 13.304-115.75 5.0757-154.31-4.0349-18.937-28.778-37.056-30.457-59.746-1.4532-19.728 15.317-36.018 20.305-59.729 9.809-46.613 1.9932-132.42 5.0766-199.12 1.5905-34.281 9.151-64.163 5.0757-84.631-6.0089-30.196-31.056-41.89-20.294-69.694 7.7175-19.992 30.595-25.396 55.828-34.843-4.094-17.549-30.977-12.757-30.448-34.843 11.35-78.486-8.8466-187.89 30.448-238.95-25.136-25.115-23.29-76.716-25.371-124.45 7.8841-20.996-28.179 1.0898-20.305-19.907 49.221-120.58 150.26-209.19 243.65-293.71 94.209-85.26 213.78-141.09 324.86-209.07 65.991 10.408 96.742-36.196 152.28-19.907 26.628-0.42548 19.834-33.651 45.677-34.852 59.49 8.0257 80.05 54.239 126.9 74.665 48.327-20.639 138.15-0.57874 157.36-49.78 105.71 15.728 127.54-50.809 116.74-149.34 180.73-73.967 389.25-101.61 604.04-134.4 464.54-70.912 984.13-120.09 1532.9-79.644 16.279 32.784-10.664 39.039-25.372 54.75 17.026 29.77 47.06 46.775 76.133 64.716 59.736 133.89 104.78 282.2 157.34 423.13 40.305 25.184 91.087 40.086 116.75 79.652 24.339 196.92 34.964 414.18 111.67 582.42h157.34c12.94-25.49 9.936-66.606 10.162-104.54 46.255-3.8727 83.154 1.4298 106.58 19.924 284.32 4.9188 499.32 77.822 664.96 199.12 55.612 86.214 43.163 244.58 50.763 408.19 10.162 219.65 13.922 426.45 25.372 637.17-62.712 31.414-139.13 49.405-213.19 69.695-11.252 7.2007-13.423 23.337-15.229 39.814-46.442-25.234-30.456-95.593-30.456-159.3v-189.17c-2.9761-19.481 20.884-12.698 25.391-24.886 1.8262-23.354-26.658-17.004-25.391-39.831-5.7144-22.187 36.937 3.0212 25.391-24.885-4.0259-27.592-38.912-24.902-50.783-44.8-4.1426-32.435-8.0903-65.065-15.228-94.581h-106.58c-49.093-31.498-24.871-134.9-30.458-209.08-2.3955-26.281 13.658 11.566 15.228-4.9876 8.9551-36.988-21.306-35.507-25.371-59.728-9.8188-73.541 19.039-120.15 5.0664-174.23-14.267-55.252-97.185-72.64-91.363-139.38-49.878-4.1619-92.677-15.319-147.22-14.936-18.332 4.715-7.061-19.617-10.124-29.864h-76.154c1.5708-18.136-0.80542-32.401-5.0862-44.801h-50.762c-15.494 9.1916 5.8713 23.643 0 39.814-53.845-21.839-139.09-12.911-213.19-14.928-34.022-72.818-43.153-170.06-101.52-219.04 3.437-11.566 26.658-3.7444 20.324-24.885-7.521-72.29-6.5195-152.9-15.248-224.01-121.16-2.6806-229.53 7.2086-345.14 9.9575 4.2615-5.7784 6.6956-13.345 5.0659-24.885 31.646-26.971 105.13-14.936 162.43-14.936h172.57c-8.9353-80.836-31.37-148.42-116.73-154.32-34.571-120.81-117.82-229.5-152.29-353.44-6.0005-21.583-1.248-48.145-10.144-69.686-19.46-47.09-97.38-57.456-81.208-124.45-63.822-32.775-207.42-19.915-324.88-19.915-629.66 0-1249.9 71.856-1746.1 199.12v99.559c37.635 0.40021 75.603 1.1322 106.59-4.9787 21.473 18.06 36.064 15.328 65.991 19.915 7.2164 25.337-25.568 11.438-40.61 14.928-8.6598 160.37 18.872 361.18-50.762 448.02-59.353-0.13599-104.67 13.507-157.35 19.915 13.923-51.073 114.96-16.698 152.28-44.809 9.2882-82.145 30.428-152.68 25.371-248.9-15.435-18.017-54.385 9.2767-65.982-4.9704-14.06-45.311 37.714-26.068 65.982-29.873 3.6913-53.396-8.3361-91.38-5.0765-144.36-97.999-33.03-136.85 35.022-208.12 44.801v418.15c-20.413-3.43-28.974 4.7742-45.685 4.9781-0.030151-82.988-1.7581-167.66 5.0757-243.92-7.7371-20.009-41.67 16.613-40.6-9.9576-5.0565-28.188 21.356-25.524 40.6-29.864v-114.5c-61.023-24.605-110.66 20.75-157.34 14.945-49.829-6.2127-59.383-59.141-106.6-74.673-18.999 2.9361-15.71 27.737-30.457 34.843-96.115-4.332-161.93 27.209-233.5 64.716-98.863 51.805-179.19 113.77-248.72 189.16 43.143 10.775 40.767-23.064 60.914-34.852 26.373-2.3831 30.153 35.013 50.752 9.9577 30.899-13.09-37.792-23.251-5.076-39.822-4.075-18.936 23.996-6.332 35.533-9.9576 12.146-6.3491-5.0663-41.473 25.371-29.873 26.029 8.7236-2.1106 42.137 5.0862 64.716 55.024-55.558 159.14-62.954 228.42-104.55-7.0594 149.07 50.261 346.06-25.381 443.04-43.526 3.7705-76.124 18.256-111.67 29.865-5.2534-26.809 53.482-33.754 86.285-39.822 1.699-79.754-39.608-127.18-15.228-219.02 16.348 1.0895 21.483-8.8087 40.6-4.9788 7.0788-74.656-35.259-94.716-10.143-164.27-47.326 18.834-74.73 24.417-116.75 29.864-28.219 130.1 41.758 331.94-35.534 418.15-33.187 5.6258-58.646 18.818-86.296 29.865-24.104-4.5708-40.846-16.35-71.067-14.928 6.1364-67.286-30.87-161.12 5.086-209.08 21.248 0.74005 2.0124 41.166 20.305 44.809 13.255-10.222 7.6779-38.928 15.218-54.758-13.756-14.715-32.028-25.005-30.457-54.758-27.531 2.8597-38.577 21.907-60.905 29.873-6.5198 85.422 12.352 200.83 5.076 283.74-3.4071 38.818-8.8564 81.874-45.686 94.589-20.403-31.771 21.394-45.278 30.457-64.716-8.9939-1.14-25.411 5.0214-20.295-9.9573 3.7018-50.086-8.3258-84.768-5.076-134.41 6.0878-27.524-26.275-17.362-25.372-39.822 19.186-14.46 28.445-64.92 15.229-94.588-34.846 14.298-28.434 70.639-30.457 114.5-3.4266 73.89 13.245 166.12-30.457 199.12-69.948-30.273-60.031-167.73-5.0766-204.1-56.565-2.3661-49.132 58.018-81.219 79.644 25.852 50.417 22.18 165.01-10.143 204.1 40.786-19.728 79.629-41.371 116.74-64.707 1.2859 9.719-29.191 30.962-45.676 39.822 15.464 26.562-7.4228 49.022-30.418 74.741zm4548 438.06v64.724c14.884-1.2933 15.611 11.251 30.477 9.9404 0.70606-35.54 4.9585-74.554-30.477-74.665zm-45.656-343.47c1.8452 31.694-9.0337 50.886-5.0874 84.614 23.359 0.32288 32.942 14.153 50.744 19.924 5.6738-55.337-13.983-85.857-45.656-104.54zm-20.315 378.32v109.51c0 32.282-14.08 85.354 20.305 89.61-1.5332-57.975 39.048-176.64-20.305-199.12zm-76.153-428.11c-0.6001 33.779 8.7969 57.754 5.0859 94.58 18.204 7.0382 28.808 21.532 45.676 29.872 2.7295-60.75 8.8662-124.83-50.762-124.45zm-20.285 353.44c3.7598 90.894 5.4482 183.82 10.142 273.79 16.642 3.5747 43.702 44.469 50.761 24.885-23.623-96.316 35.632-273.89-60.903-298.68zm-116.75-184.19c11.792 36.537 1.728 94.563 5.0664 139.37 27.845-0.74841 54.69-0.5188 76.153 4.9877v-139.38c-29.574 3.9747-58.931-18.348-81.22-4.9785zm76.133 199.12c-29.338 3.9056-43.398-7.2173-71.067-4.9706v214.04h71.067c-0.62842-67.302 0.88379-157.99 0-209.07zm-86.275-423.12c6.8037 31.473 6.9805 69.456 10.143 104.54 23.838 6.4935 33.255 27.123 55.828 34.843v-114.5c-20.639-9.6258-47.179-13.482-65.971-24.885zm-101.52-39.83c0.36328 21.201 8.4736 34.818 5.0659 59.745 21.15 2.4941 29.632 17.413 50.763 19.908 10.378-54.963-12.254-77.593-55.829-79.652zm-4208 433.1c-3.0535-3.021 35.131-5.0721 30.457 9.9407 10.575 33.609-40.305 6.9451-25.381 44.801 202.91-84.742 471.99-147.74 730.94-194.13-13.206-2.9194-30.87-60.963 0-59.737 11.655 10.136 1.8458 41.336 5.0862 59.737 69.27-10.052 135.52-23.082 203.04-34.843v-49.789c-52.922-17.915-68.269 51.423-106.59 14.936 29.456-20.894 81.848-19.302 65.991-84.622 100.55 10.885 63.055-99.21 65.991-174.23h-50.763c-11.094 17.183-13.206 41.209-15.228 54.767-37.449-8.8344-51.901-41.039-40.61-84.623 23.378-12.042 58.793-21.302 91.371-9.958 0.10815-11.736-8.7483-14.664-5.0759-29.881-56.172-16.332-112.38 8.8342-167.52 9.958-10.81 92.282-13.658 192.38-20.295 288.73-22.209 4.7745-33.373 20.375-65.99 14.937v-129.43h-40.61c-16.446 40.281-1.4724 111.4-40.61 129.43-6.824-43.252-5.174-121.19 25.382-144.37 19.892-5.3705 62.515 11.532 65.981-9.958 4.0751-18.919-23.996-6.3235-35.523-9.9487-2.8773-15.43 1.3746-37.856-15.239-39.839-10.791 19.302-20.472 39.669-35.523 54.775-2.8184-45.371 7.7763-103.86-15.238-129.43h-15.219c-19.746 91.814-14.306 208.33-30.458 303.66-19.126-3.8298-24.262 6.068-40.6 4.9782 3.0342-48.46-8.2475-110.96 10.143-144.37-7.7762-25.566-45.519-21.728-71.058-29.873 4.8897-23.405-3.2593-59.609 15.229-69.686 15.7 1.1998-7.9435 40.962 15.228 34.852 17.516-24.638 81.828-38.307 55.838-74.674-29.868-4.3062-78.863 15.532-116.75 19.924-6.4998 131.43 27.787 282.01-25.381 373.34-14.06-16.077-49.378-11.303-71.057-19.915-0.57898-27.116 43.35-10.57 50.762-29.856-23.074-61.456 4.9093-186.62-10.152-268.81-47.581 29.66-8.405 144.42-50.752 179.21-3.3583-74.648 5.8218-137 10.152-204.1-40.227-9.5575-36.378 24.077-55.838 34.86-32.745 14.349-60.866 33.226-96.439 44.809v39.822c-3.6328 13.515 23.938-3.5662 20.305 9.9654 3.3385 72.946-8.6993 130.83-5.0759 204.08-15.7-0.17029-31.478 25.183-40.61 14.945-5.6459-82.418 6.3721-182.15-20.305-243.93-8.061 16.996-34.915 15.532-45.676 29.873 10.172 8.2809 23.594 13.362 25.371 29.864 4.2712 32.29-3.3578 72.563-5.0759 109.51-1.7481 37.813 14.198 86.316-25.381 94.597-8.4533-59.745 24.763-160.35-35.533-169.25-3.3189 69.626 8.7183 124.19 5.0759 194.14h-45.686c0.43199 10.834-13.913 32.162-5.0957 34.817zm715.71-522.7c-31.675-2.8508-49.594 7.7786-76.134 9.9492-3.4951 20.034 4.8602 28.417 5.0766 44.809 16.593-21.89 60.129-17.362 91.362-24.894-9.2787-7.498-11.94-21.473-20.305-29.864zm-274.1 537.62c5.8423 24.136-12.264 71.762 10.152 79.652 27.482-14.545 31.371-52.213 71.067-54.775v-34.843c-23.133 7.1914-56.339 4.4939-81.22 9.9661zm5.0765 512.72v44.801c23.849 5.1484 19.539-17.337 45.676-9.9412-9.8187 21.89-35.376 28.358-50.752 44.801v119.46c0 37.933 11.989 97.942-15.228 109.52-11.842-94.597-1.6892-210.74-5.0763-313.64-18.273-1.3106-24.468 9.209-40.61 9.9748 2.7297 106.84 7.413 211.76 10.152 318.59-15.425-3.1233-43.722 6.3833-50.752-4.9871v-209.06c-13.776-3.0891-40.286 6.3147-45.686-4.9873 8.1592-31.83 12.175-67.686 45.686-74.665-10.909-19.167-54.591-6.2039-81.21-9.9575 3.4852 107.97-8.5718 200.67-5.0862 308.63-15.425-3.1064-43.722 6.3833-50.762-4.9707v-283.75h-45.677c-3.3774 92.938 6.7557 199.11-5.0759 283.75-6.5487 6.8686-22.053 4.9363-35.534 4.9707v-293.69h-55.838c7.3347 110.6 10.683 225.14 20.305 333.52 124.39 3.1577 271.72-7.0474 406.08-9.957 3.6035-93.134-8.4441-170.93-5.0766-263.83 14.316-30.75 40.59-49.805 40.61-94.581-25.381-0.01709-50.763-0.01709-76.143-0.01709zm-50.763-1418.7c-22.17 28.034-68.622 32.273-86.296 64.716 3.7016 59.413 11.282 115.06 10.153 179.22 23.79 6.5271 55.691 5.114 86.286 4.9697-6.6368-79.78 13.373-185.69-10.143-248.91zm5.0668-4.97c11.772-23.303 1.7478-67.984 5.0759-99.559-57.409-4.8768-82.191 22.264-116.74 39.822 27.689 10.996 27.227 49.609 25.372 89.601 31.006-7.7704 58.646-18.834 86.296-29.864zm-76.134 438.06h40.62v-19.924c-16.387 3.8635-30.006 10.417-40.62 19.924zm-284.25 612.29c-15.602 1.2932-22.828 10.791-35.533 14.945 3.8979 59.227 1.8063 124.32 15.228 174.22 51.41-29.839 10.8-124.32 20.305-189.17zm-5.0757 597.36c-2.4253-46.307 11.458-109.44-25.372-129.44-15.67 83.431 6.284 173.02 0 263.83h35.524c-2.062-38.963-7.6976-87.38-10.152-134.39z"/>
  <path d="m2359.4 1703.6c56.939-55.967 194.3-50.92 223.33 24.885v263.83c-72.334-2.9109-131.97 6.6471-197.96 9.958-2.9358-58.494-6.7166-116.21-10.162-174.22 1.2073-15.438 18.027-15.541 30.457-19.915-20.943-12.647-23.074-43.737-20.285-79.653-8.9934-13.251-21.483 11.754-30.458 14.945-9.3174-4.6894 7.8257-25.124 5.0762-39.83z"/>
  <path d="m2059.9 1240.7c-113.75-125.77 191.31-182.81 187.8-39.822-66.393-85.609-181.16-31.566-187.8 74.665h-50.763v-34.851c16.927 0.008057 33.845 0.008057 50.763 0.008057z"/>
  <path d="m2237.6 2629.6c-69.388-3.3108-152.27 6.6126-213.19-4.9868 2.6606-18.953 29.888-13.831 50.762-14.928 3.7602-68.401-8.179-121.4-5.0859-189.18-7.8159-20.945 26.275-0.7832 25.381-14.928 8.1296-27.873-14.178-25.916-25.381-34.844 0.11792-24.784 7.9036-42.034 15.238-59.745-29.132 1.3106-38.568 21.906-55.838 34.859 8.552-49.166 60.934-98.588 126.9-84.621 62.515 13.217 56.379 85.907 86.296 134.39 3.3481 82.954-8.6997 150.78-5.0767 233.99z"/>
  <path d="m151.35 1758.4h45.686c3.6431-69.95-8.3944-124.51-5.0759-194.14 60.306 8.9019 27.08 109.52 35.533 169.25 39.579-8.2806 23.634-56.784 25.382-94.597 1.7083-36.945 9.3372-77.218 5.0765-109.51-1.7872-16.494-15.2-21.583-25.372-29.864 10.761-14.341 37.625-12.877 45.676-29.873 26.686 61.78 14.668 161.51 20.305 243.93 9.1312 10.239 24.91-15.106 40.61-14.945-3.6328-73.252 8.4051-131.13 5.0766-204.08 3.6327-13.532-23.938 3.5496-20.305-9.9658v-39.822c35.573-11.574 63.693-30.46 96.438-44.809 19.46-10.784 15.612-44.418 55.839-34.86-4.3298 67.116-13.511 129.47-10.152 204.1 42.348-34.792 3.1715-149.54 50.753-179.21 15.062 82.197-12.922 207.36 10.152 268.81-7.4132 19.286-51.342 2.7488-50.763 29.856 21.68 8.613 57.007 3.838 71.058 19.916 53.168-91.329 18.881-241.9 25.381-373.34 37.89-4.3916 86.885-24.23 116.75-19.924 26 36.366-38.312 50.043-55.838 74.673-23.162 6.1193 0.47113-33.652-15.229-34.852-18.488 10.086-10.339 46.282-15.229 69.686 25.538 8.1445 63.281 4.3063 71.057 29.873-18.4 33.405-7.1086 95.908-10.142 144.37 16.348 1.0902 21.473-8.8081 40.599-4.9784 16.162-95.338 10.712-211.85 30.458-303.66h15.218c23.005 25.566 12.421 84.06 15.239 129.43 15.052-15.098 24.743-35.472 35.523-54.775 16.613 1.9746 12.362 24.4 15.238 39.839 11.527 3.626 39.599-8.9698 35.524 9.9491-3.4659 21.49-46.079 4.5881-65.981 9.9579-30.556 23.175-32.205 101.12-25.381 144.37 39.128-18.034 24.164-89.15 40.61-129.43h40.61v129.43c32.617 5.4388 43.771-10.162 65.991-14.936 6.6472-96.351 9.4944-196.44 20.294-288.73 55.122-1.1237 111.34-26.29 167.52-9.958-3.6722 15.218 5.1837 18.145 5.076 29.881-32.578-11.345-67.994-2.0851-91.372 9.9578-11.282 43.584 3.1618 75.788 40.61 84.622 2.0227-13.558 4.1339-37.584 15.229-54.767h50.762c-2.9257 75.014 34.571 185.12-65.991 174.23 15.867 65.329-36.526 63.729-65.991 84.622 38.322 36.486 53.679-32.851 106.59-14.936v49.788c-67.522 11.762-133.77 24.792-203.04 34.843-3.2403-18.392 6.5688-49.592-5.0861-59.737-30.87-1.2335-13.206 56.818 0 59.737-258.95 46.392-528.02 109.39-730.94 194.13-14.924-37.848 35.965-11.183 25.381-44.801 4.6738-15.013-33.51-12.962-30.457-9.9404-8.7975-2.6126 5.5475-23.94 5.0962-34.817zm807.07-378.31c-1.7679 43.065-7.6589 82.095-10.152 124.44 11.949 0.1106 14.944-8.579 30.457-4.9794 3.3189-29.941-6.6772-72.928 5.076-94.58 18.184 0.42566 29.328 7.7362 45.686 9.9491v-29.856c-29.358 3.8892-43.388-7.2345-71.067-4.979zm10.162-94.589h-10.152c-6.0873 9.5491-13.736 63.048 5.0766 64.708h10.152c6.0875-9.5493 13.736-63.057-5.0765-64.708zm-192.9 308.63v34.842c21.63-0.36584 35.504-8.3315 60.915-4.9785-3.682-15.217 8.7586-14.647 5.0765-29.864h-65.991zm-157.34 39.821c-3.6821 15.226 8.7483 14.647 5.0662 29.865 23.29-0.40015 34.483-12.639 60.915-9.9491v-29.873c-28.818-3.3619-41.622 8.9618-65.981 9.9572zm0-179.21c-17.29 7.6252-14.109 41.192-15.228 69.686-1.0607 26.962-10.241 73.533 15.228 74.674 21.523-31.992-8.9641-114.98 30.457-129.43-12.4-2.757-10.83-19.252-30.457-14.928zm-253.8 0c33.973 27.234 13.854 88.827 15.219 139.39 1.5219 15.072 21.356-17.541 25.381 0 2.15 33.234-19.392 75.549 15.219 84.63-14.728 33.66-73.443 24.205-81.21 64.716 25.676-4.6894 41.543-18.996 76.143-14.945 52.569-67.916 35.288-204.33 40.6-318.58-40.855 4.6984-64.724 26.103-91.352 44.792zm-101.51 298.67c16.967 3.2937 24.822 15.49 40.6 19.932-2.4842-15.711 9.151-17.583 5.0764-34.861-18.508 1.7624-31.636 8.8007-45.677 14.929zm-60.914 24.903c13.157 6.9956 23.437 16.843 35.533 24.885 1.5126-13.728 13.354-42.92 5.0669-49.788 1.0602 22.613-27.424 16.264-40.6 24.903z" fill="#fff"/>
 </g>
</svg>
