<?xml version="1.0" encoding="UTF-8"?>
<svg viewBox="0 0 340 527" xmlns="http://www.w3.org/2000/svg">
 <path d="m171 511.29c-3.8604-1.5832-6.1875-7.0241-8.4645-19.791-3.3546-18.809-7.7815-30.568-15.201-40.379-8.9656-11.855-15.507-33.864-17.869-60.121-0.5394-5.9962-1.6499-9.6053-5.5386-18l-4.864-10.5-7.4513-0.29062c-6.4487-0.25152-7.521-0.0497-7.9696 1.5-0.28511 0.98484-1.6819 6.7085-3.104 12.719s-4.1166 15.461-5.9877 21c-5.2424 15.519-12.55 56.78-12.55 70.859 0 3.8769 0.48651 9.8427 1.0811 13.257 0.9111 5.2319 1.5009 6.4042 3.75 7.4532 5.9077 2.7555 20.422 7.2949 33.557 10.495 14.926 3.6366 16.73 4.5139 14.977 7.2846-0.9857 1.5579-3.7545 1.7339-28.978 1.8416-16.573 0.07078-29.713 0.56803-32.388 1.2256-2.475 0.60854-6.1572 1.1174-8.1826 1.1309-4.5621 0.03029-5.3604-1.7834-4.8312-10.976 0.20583-3.575 0.29444-11.225 0.1969-17s-0.29114-24.33-0.43023-41.234-0.59557-29.504-1.0144-28c-3.1489 11.306-7.224 63.673-6.6486 85.44 0.11385 4.307-0.064 8.102-0.39522 8.4332s-2.648 0.29544-5.1484-0.07952l-4.5462-0.68175 0.00967-15.689c0.00866-14.051 1.0315-37.312 2.4894-56.614 0.49877-6.6034 5.0125-23.517 8.0665-30.226 0.78891-1.7331 1.4344-3.4729 1.4344-3.8662s2.6578-8.2003 5.9062-17.349c7.4871-21.086 8.0938-24.184 8.0938-41.318 0-7.747 0.48766-17.062 1.0837-20.701 1.6127-9.8446 4.9263-25.295 5.9861-27.912 0.51163-1.2634 0.93024-7.6903 0.93024-14.282 0-12.618 1.171-17.568 4.9992-21.135 5.0193-4.6762 5.725-19.572 1.6718-35.286-2.9588-11.471-7.118-24.212-9.2182-28.239-0.79226-1.5188-1.4432-3.2918-1.4466-3.94s-0.7133-1.8857-1.5776-2.75c-1.2665-1.2665-4.0801-1.5714-14.5-1.5714h-12.929v-13.935c0-21.656 2.4552-30.567 15.072-54.708 11.542-22.085 13.885-25.208 23.748-31.667l5.3199-3.4834-4.9944-1.6589c-2.7469-0.91238-7.5071-3.0198-10.578-4.6832-6.207-3.3619-18.012-14.521-19.122-18.075-0.39323-1.2597-1.0127-2.5153-1.3766-2.7903-1.0224-0.77271-5.7199-12.135-6.5166-15.762-1.019-4.6395 0.88582-4.0787 3.4383 1.0124 1.172 2.3375 3.4444 5.825 5.0498 7.75l2.919 3.5-0.59089-6c-0.7726-7.8451 0.74827-13.124 5.6677-19.671 5.0292-6.6933 12.582-11.813 21.801-14.777 6.2344-2.0046 8.6271-2.2451 18.414-1.8511 10.292 0.41442 11.896 0.75433 18.864 3.9983 14.018 6.5267 21.125 16.181 21.415 29.09 0.08371 3.7341-0.2262 7.0232-0.68869 7.309-1.374 0.84916-0.95455 3.3825 0.46954 2.836 1.3535-0.51938 8.8894-11.586 9.9997-14.684 0.6125-1.7093 2.7005-2.4887 2.679-1-0.02817 1.9518-3.1667 10.813-5.416 15.291-5.1799 10.313-13.273 18.863-23.271 24.583l-5.4599 3.1239 3.7942 0.71181c5.5308 1.0376 9.1975 3.2192 11.345 6.7501 1.5922 2.6181 3.0467 3.4057 9.1554 4.957 8.7053 2.2107 15.085 7.0797 18.842 14.38 2.0337 3.9519 2.4875 6.2891 2.5027 12.89 0.01023 4.4346-0.40923 8.2878-0.93213 8.5628s-2.5336-2.1679-4.4681-5.4286c-10.643-17.939-24.84-25.747-34.676-19.071-2.0262 1.375-4.7462 2.5-6.0444 2.5-2.0066 0-2.3604 0.49767-2.3604 3.32 0 4.3838 6.0311 11.68 9.6548 11.68 2.3964 0 6.6658 3.53 8.8452 7.3135 0.55 0.95481 1.9 1.9175 3 2.1393l12.983 2.5564c12.218 2.3952 20.779 5.9352 23.167 9.5803 2.0134 3.0728 4.4138 3.0432 9.8131-0.12103 3.9566-2.3187 5.3146-4.2559 6.9881-9.9684 0.66972-2.286 8.4358-7.7148 13.373-9.3482 1.8286-0.60497 4.733-2.2848 6.454-3.733 3.0705-2.5836 3.1587-2.5966 4.7008-0.69232 1.4686 1.8136 1.8364 1.8442 5.6159 0.46611 3.6837-1.3431 4.2834-1.318 6.7244 0.2814 1.474 0.96581 2.68 2.3311 2.68 3.034s0.675 1.537 1.5 1.8536c2.0042 0.76907 1.8908 2.454-0.49802 7.3981-2.5963 5.3738-6.0075 7.825-20.249 14.551-9.769 4.6135-23.005 12.802-29.753 18.406-0.825 0.68518-2.2782 1.8168-3.2294 2.5148-1.5616 1.1459-1.7556 4.1795-2 31.269-0.25248 27.989-0.12219 30.637 1.9441 39.5 3.7091 15.91 5.0146 22.944 6.7742 36.5 2.2566 17.385 4.0803 25.245 6.7716 29.188 2.8928 4.238 4.0776 4.6207 6.8528 2.2138 1.2515-1.0854 2.8833-1.8448 3.6262-1.6875 1.3034 0.27584 8.2604 15.848 8.2604 18.489 0 0.71311-0.675 1.2966-1.5 1.2966s-2.5118 1.0125-3.7484 2.25-3.5991 2.3152-5.25 2.395-4.8016 0.95952-7.0016 1.9551c-4.1294 1.8687-5.7572 2.2566-11.172 2.6623-1.7444 0.1307-4.3353 1.2501-5.7576 2.4876s-2.9309 2.25-3.3524 2.25c-0.82127 0-6.2184-15.88-6.2184-18.296 0-0.91622 1.4692-1.6831 4-2.0878 2.2-0.35179 4-0.833 4-1.0693s-2.8938-9.1462-6.4306-19.8c-7.9032-23.806-10.235-32.632-13.008-49.247-1.4303-8.569-2.6188-21.037-3.6972-38.785-1.0402-17.12-1.5173-20.735-2.706-20.5-0.88851 0.17543-3.4579 6.2418-6.6858 15.785-2.8835 8.525-6.2153 17.3-7.4041 19.5-1.9145 3.543-2.1367 5.3579-1.9446 15.884 0.11931 6.5362 0.58919 13.961 1.0442 16.5s1.4467 8.2161 2.2037 12.616 2.2967 11.375 3.4214 15.5c1.947 7.1406 5.5537 24.839 10.189 50 1.1653 6.325 2.3632 12.625 2.6619 14s0.73504 3.4 0.9696 4.5 0.87248 6.5 1.4176 12c1.1814 11.919 3.9963 25.604 9.2562 45 2.116 7.8029 4.324 17.548 5.0976 22.5 0.12889 0.825 0.57573 3.75 0.99296 6.5s1.1494 5.9 1.627 7 2.77 8.525 5.0942 16.5c5.8171 19.96 6.9534 22.371 12.094 25.656 5.8909 3.7654 17.597 7.8128 28.347 9.8013 11.921 2.2051 16.459 3.6053 16.459 5.0781 0 4.3919-10.791 5.9862-30.454 4.4993l-15.661-1.1843-4.7784 2.4986c-5.1394 2.6873-10.689 3.9328-13.106 2.9414zm11.535-4.3073 6.452-3.0166 15.756 1.1692c12.299 0.91265 17.018 0.90072 21.506-0.05435 3.1625-0.67298 5.75-1.5701 5.75-1.9936 0-0.74953-6.4089-2.3612-14.5-3.6464-12.277-1.9501-26.367-7.6682-31.731-12.878-3.15-3.0592-6.5925-11.948-10.869-28.064-0.43786-1.65-1.7353-6.15-2.8832-10s-2.2952-8.35-2.5496-10c-1.444-9.365-3.9178-20.215-9.4621-41.5-1.6475-6.325-3.6886-15.775-4.5358-21-0.84721-5.225-1.7579-10.512-2.0237-11.75-0.47598-2.2156-0.71988-2.25-15.964-2.25-8.5145 0-15.481 0.23488-15.481 0.52196s1.3919 3.5496 3.093 7.25c5.2084 11.329 6.046 14.352 6.9404 25.047 1.9872 23.762 8.1654 43.712 16.927 54.66 6.9618 8.6985 12.344 23.036 15.505 41.301 1.8835 10.883 2.9167 13.919 5.7752 16.971 2.7687 2.9556 4.5741 2.843 12.294-0.76655zm-110.04 0.9275c2.3726-0.61767 15.534-0.99544 32.349-0.92852 31.873 0.12684 34.891-0.67893 17.634-4.7084-10.999-2.5683-26.248-7.2449-34.214-10.493-4.3402-1.7697-5.438-2.7411-6.4495-5.7068-2.0964-6.1466-1.6109-27.908 0.94989-42.574 1.2484-7.15 2.9558-17.05 3.7942-22 1.6274-9.6089 1.9063-10.682 8.9657-34.5 2.5267-8.525 4.8539-17.638 5.1715-20.25l0.57743-4.75h-13.023c-11.526 0-13.086 0.2011-13.573 1.75-0.3027 0.9625-1.3036 3.775-2.2242 6.25-8.2028 22.052-10.953 43.68-9.9864 78.525 0.86873 31.31 0.99991 44.627 0.51205 51.986-0.21915 3.3057-0.05372 6.5682 0.36763 7.25 0.92535 1.4972 3.7937 1.5444 9.1481 0.15051zm-21.483-9.161c0.03618-15.359 2.0007-51.834 3.4604-64.25 1.8708-15.913 2.6707-19.92 5.8899-29.51 1.3866-4.1306 3.4415-11.642 4.5665-16.693s3.3434-12.739 4.9298-17.086c2.2247-6.0959 3.1352-10.969 3.981-21.307 3.5787-43.744 4.252-50.745 5.1851-53.91 0.56644-1.9216 1.4501-8.8938 1.9637-15.494s1.2316-13.8 1.5956-16c0.6401-3.8688 0.60105-3.9422-1.1901-2.2378-1.5736 1.4974-1.9474 3.9774-2.4875 16.5-0.49914 11.575-1.3293 17.635-3.8681 28.238-2.8153 11.757-3.3413 16.146-4.0751 34-0.4634 11.275-1.2583 22.075-1.7664 24-1.1565 4.3811-6.0175 18.823-7.2366 21.5-1.1053 2.4269-2.5912 6.6836-8.9013 25.5-6.099 18.187-6.7933 23.829-7.6486 62.151-0.65832 29.494-0.61302 30.669 1.2004 31.134 4.2755 1.0963 4.384 0.93519 4.4016-6.5348zm101.98-141.68c0-1.614-0.63763-6.0016-1.417-9.75s-1.6506-8.1654-1.9363-9.8154c-0.57787-3.3382-1.032-5.6156-6.6801-33.5-3.345-16.514-7.0389-32.874-8.5233-37.75-0.26384-0.86659-2.9207-1.256-8.662-1.2695-10.257-0.02418-27.815-2.3281-33.657-4.4164-4.2504-1.5193-7.9793-2.0858-6.9492-1.0557 0.2796 0.2796-0.07886 3.5421-0.79658 7.25s-1.3215 10.12-1.3417 14.248-0.46984 9.0167-0.99916 10.862c-1.8356 6.4005-3.3883 20.773-5.5777 51.631-0.27315 3.85-0.75561 9.1375-1.0721 11.75l-0.57549 4.75h78.188v-2.9346zm27-27.72c0-1.3336-0.91198-4.2125-2.0266-6.3974-1.8043-3.5366-2.3254-3.9009-4.75-3.3195-1.4978 0.35917-2.837 0.7409-2.976 0.84829-0.20706 0.16006 2.2611 7.8972 4.2454 13.308 0.80358 2.1913 5.5072-1.6006 5.5072-4.4397zm6 0.77569c0-2.6163-4.9259-13.121-6.1528-13.121-1.2934 0-0.23774 4.863 2.3019 10.604 2.021 4.5688 3.8508 5.7646 3.8508 2.5166zm5-2.0549c0-2.5944-5.0255-14.066-6.1621-14.066-2.177 0-1.7763 3.3432 1.1311 9.4351 3.1235 6.5447 5.031 8.3005 5.031 4.6308zm4.0076-0.81591c0.0151-1.4813-5.5224-14.244-6.1816-14.247-0.37068-0.0018 0.48332 3.3717 1.8978 7.4967s2.9552 7.5 3.424 7.5 0.85565-0.3375 0.85986-0.75zm3.5194-4c-0.64498-3.4776-5.2122-10.898-6.1378-9.9726-0.22483 0.22484 0.57429 2.8419 1.7758 5.8157 3.4474 8.5323 5.5441 10.53 4.362 4.1569zm1.1368-6.4532c-1.9094-4.0132-4.6163-8.3656-6.0155-9.672l-2.5439-2.3752-6.4297 1.7404c-8.1279 2.2001-8.7267 2.5955-8.0206 5.2957 0.59296 2.2675 3.7118 3.049 4.8458 1.2142 0.33992-0.55 1.6265-1 2.859-1s2.6866-0.44565 3.2313-0.99033c2.611-2.611 10.517 2.5216 11.855 7.6962 1.13 4.3707 2.8018 7.77 3.2413 6.5909 0.24671-0.66178-1.1137-4.4868-3.023-8.5zm8.979 4.6915c0.31906-0.83147-0.59506-3.9938-2.0314-7.0273s-2.6115-5.9533-2.6115-6.4882c0-1.5022-2.6081-1.1498-4.0123 0.54218-1.032 1.2435-0.74043 2.6718 1.6276 7.9731 2.8807 6.4492 5.7015 8.4562 7.0276 5.0003zm-26.643-16.374c4.2727-1.1937 6.611-2.382 6.8239-3.4679 0.50724-2.587-1.8952-2.8394-7.8419-0.82373-4.1184 1.3959-5.5615 2.3954-5.8016 4.018-0.17575 1.1879-0.17575 2.144 0 2.1247s3.2446-0.85229 6.8196-1.851zm-1.3205-6.2488c4.6395-1.5671 6.3205-2.6153 6.3205-3.941 0-2.902-1.4023-3.0436-8.4831-0.85657-5.1032 1.5762-6.5432 2.4215-6.0988 3.5798 0.32003 0.83398 0.58187 1.9295 0.58187 2.4345 0 1.2808 0.53764 1.1956 7.6795-1.2167zm-0.10312-7.5206 5.6794-1.7903-0.59803-7.0271c-0.54561-6.4112-2.9839-21.785-5.6139-35.397-0.57064-2.9534-1.7562-7.6784-2.6347-10.5-1.1291-3.6268-1.7562-10.918-2.1401-24.88l-0.54298-19.75h-20.897l0.55885 7.25c0.30737 3.9875 0.81806 11.975 1.1349 17.75 1.0141 18.485 5.058 46.895 7.159 50.295 0.31996 0.5177 0.93431 2.3507 1.3652 4.0733 1.3415 5.3627 4.7972 17.093 5.8557 19.877 1.1262 2.9622 1.5787 2.9664 10.673 0.09953zm-46.576-31.222c0-3.7264-1.2631-4.652-8.3256-6.1006-5.0921-1.0445-6.0542-0.98804-7.6415 0.44844-2.0533 1.8582-1.6304 5.2999 0.89063 7.248 0.87046 0.67263 4.5994 1.2324 8.3265 1.25l6.75 0.0318v-2.8776zm-18.686 0.62756c-0.9956-1.3376-0.94382-4.2532 0.12148-6.8393 0.68621-1.6658-2.6456-2.8018-18.748-6.3919-8.7823-1.9581-8.3381-2.0438-8.972 1.7312-0.30017 1.7875-0.83453 3.9784-1.1875 4.8688-0.48329 1.2192 0.42144 2.0568 3.6649 3.3932 9.3042 3.8336 27.29 6.1519 25.121 3.238zm17.052-10.5c-0.19744-1.5125-0.41493-7.0726-0.48329-12.356-0.10622-8.2076 0.24203-10.464 2.3925-15.5 5.8514-13.704 11.367-30.085 10.442-31.011-0.22271-0.2227-2.3876 0.30148-4.8109 1.1648-4.0316 1.4364-5.2132 1.4263-13.906-0.11867-14.665-2.6063-39.653-10.096-48.25-14.462-5.1307-2.6055-7.75-3.4871-7.75-2.6084 0 1.8421 3.2637 11.051 6.252 17.64 5.03 11.092 11.269 33.304 12.424 44.232l0.6057 5.7324 8.1094 2.4503c4.4602 1.3476 10.809 2.9497 14.109 3.56s8.475 1.7274 11.5 2.4823c8.6715 2.164 9.7873 2.0202 9.366-1.2074zm12.141-61.629c2.7463-1.3384 8.8289-5.288 13.517-8.7771s10.538-7.6937 13-9.3437 4.9265-3.3424 5.4765-3.7609 2.2114-1.6681 3.692-2.7769l2.692-2.016-3.0935-4.9764c-1.7014-2.737-3.6065-5.4022-4.2335-5.9225-1.4624-1.2137-18.664 7.1816-24.705 12.057-12.785 10.318-17.377 10.779-35.352 3.5461-6.6-2.6557-12.512-5.2518-13.138-5.769-0.80263-0.6634-2.1547 1.4982-4.5906 7.3389-4.732 11.346-5.1772 13.426-3.0121 14.065 13.174 3.892 19.987 5.7278 26.24 7.0707 4.125 0.88579 8.4 1.8099 9.5 2.0536 3.5175 0.77927 8.8717-0.28702 14.007-2.7894zm30.493-1.6208v-4h-8.9286c-9.4592 0-12.071 1.0899-12.071 5.0364 0 1.7139 0.97277 1.9243 10.25 2.2177 5.6375 0.17825 10.362 0.41899 10.5 0.53498s0.25-1.5891 0.25-3.7891zm-105.25-4.25c-0.28752-0.86696-3.5865-1.338-10.766-1.537-10.8-0.29944-13.535 0.0903-12.491 1.7799 0.97089 1.5709 23.779 1.3327 23.256-0.24294zm24.908-12.271c3.9155-9.8877 4.0516-10.563 2.3157-11.492-4.3063-2.3047-5.3343-1.3133-9.3954 9.0606-2.3536 6.0121-3.5523 10.362-3 10.886 0.77133 0.73186 2.2368 1.2571 5.4198 1.9425 0.275 0.05922 2.3719-4.6195 4.6599-10.397zm81.133 8.3763c0.45305-2.3777-8.4247-3.0823-11.511-0.91367-3.6246 2.5466-2.6563 3.1666 4.4582 2.8544 5.3107-0.233 6.8061-0.64448 7.0531-1.9408zm-107.98-3.046c-0.26694-2.7184-1.3888-3.9119-7.5739-8.0574-8.8172-5.9096-10.732-9.3647-9.182-16.566 1.3837-6.427 4.94-12.415 8.3429-14.048 1.561-0.74895 5.597-1.718 8.9689-2.1534s9.9557-2.0253 14.631-3.5331c4.675-1.5078 9.9625-2.9119 11.75-3.1202l3.25-0.37872v29.02l3.5382 1.4784c7.2424 3.0261 6.9618 3.4474 6.9618-10.452 0-11.563 0.17841-12.75 2.3791-15.836 3.1896-4.4721 2.4641-10.547-2.4172-20.24-3.4541-6.859-3.6347-7.6963-3.3077-15.34 0.27457-6.4188 0.80944-8.7346 2.5958-11.239 2.9249-4.1005 2.8647-4.3456-1.0663-4.3456-14.001 0-26.531 6.5229-35.536 18.5-0.87405 1.1625-13.423 24.878-16.669 31.5-5.9124 12.064-8.4592 23.714-8.4715 38.75l-0.00755 9.25h22.127l-0.31336-3.1911zm18.124-9.3994c3.3892-7.6976 3.9831-9.8452 2.9105-10.525-2.5577-1.6209-4.3638-0.87376-5.7178 2.3654-2.568 6.1434-5.2744 12.253-6.1826 13.956-0.67667 1.2694-0.36048 2.091 1.2346 3.2083 1.1793 0.82603 2.4487 1.3137 2.8207 1.0838s2.5926-4.77 4.9345-10.089zm90.063 5.974c0-1.7015-2.1768-1.8066-3.8-0.18342-1.8694 1.8694-1.4265 2.566 1.3 2.0448 1.375-0.26285 2.5-1.1004 2.5-1.8613zm-97.288-8.9293 4.1807-9.5459-2.415-1.1003c-2.6323-1.1994-2.3422-3.1753 0.35648-2.4279 0.91621 0.25373 2.7793 0.78441 4.1403 1.1793l2.4744 0.71796-2.5825-3.3886c-1.4204-1.8637-3.7641-5.7218-5.2082-8.5734-2.5843-5.1031-2.6771-5.1701-5.8853-4.25-1.7928 0.51415-4.8376 0.96772-6.7662 1.0079s-4.8566 0.84797-6.5066 1.7951c-3.1017 1.7803-7.7504 9.6792-6.9927 11.882 0.23648 0.6875-0.00591 1.25-0.53865 1.25-1.4386 0-1.1756 2.7615 0.62409 6.5541 0.96909 2.0422 3.612 4.6054 6.75 6.5465 2.8365 1.7546 6.727 4.2497 8.6454 5.5448s3.9505 2.3546 4.5156 2.3546 2.9088-4.2956 5.2082-9.5459zm58.845 5.4272c5.2056-1.3108 5.2573-1.5649 2.5759-12.658-1.0268-4.2479-2.669-11.998-3.6493-17.224-1.9218-10.243-3.2441-13.114-6.7831-14.727-2.1506-0.97988-2.2501-0.85408-1.874 2.3683 0.21852 1.8717-0.0892 4.6306-0.68382 6.1307-0.96586 2.4368-1.5895 17.502-1.263 30.51 0.09952 3.9648 0.50463 4.9368 2.37 5.6866 3.0449 1.2239 4.1399 1.2136 9.3072-0.08755zm-13.557-2.8813c0-0.55-0.675-1-1.5-1s-1.5 0.45-1.5 1 0.675 1 1.5 1 1.5-0.45 1.5-1zm25.397-4.3046c2.2566-1.8176 6.128-4.479 8.603-5.9142 3.6816-2.135 4.9092-3.6297 6.75-8.2186 1.2375-3.085 2.25-6.2013 2.25-6.9252 0-1.6158-3.7866-3.4196-8.8923-4.236-3.7274-0.59604-3.8824-0.49839-5.9408 3.7434-1.1624 2.3955-3.9255 6.7631-6.1402 9.7058s-4.0267 6.0608-4.0267 6.929c0 1.8623 2.2027 8.2206 2.8479 8.2206 0.24536 0 2.2925-1.4871 4.5491-3.3046zm-26.211-0.19536c-0.32627-1.0392-12.178-1.4446-12.183-0.41667-0.00764 1.5204 1.8634 1.9803 6.9574 1.7103 3.1112-0.16491 5.4021-0.73202 5.2258-1.2936zm64.448-2.9877c0.43433-1.1319-3.0274-8.6835-5.2046-11.354-0.6061-0.74332-4.429 1.0444-4.429 2.0712 0 0.60229 1.3969 3.272 3.1042 5.9326 3.132 4.8809 5.4797 6.0853 6.5294 3.3499zm-66.884-0.14263c1.2375-0.33163 2.25-1.15 2.25-1.8186 0-0.86616-1.6531-1.0844-5.75-0.75931-6.4092 0.50864-6.7276 0.62641-5.7911 2.1417 0.71809 1.1619 5.7089 1.3962 9.2911 0.43624zm72.25-4.9806c0-2.2409-4.3262-9.3726-5.691-9.3814-3.2681-0.02113-2.2779 4.5682 2.0917 9.6943 1.9979 2.3438 3.5993 2.2046 3.5993-0.3129zm-101.32-2.9753c-2.4868-2.5224-5.7938-7.0213-7.3489-9.9976-2.5547-4.8894-4.3275-6.7751-4.3275-4.6031 0 1.6745 8.3586 14.593 10.879 16.814 4.772 4.2048 5.4019 2.457 0.79757-2.2133zm31.774 1.4573c0.54818-0.50265-1.8839-0.8711-5.75-0.8711-6.1072 0-7.7527 0.61399-6.0931 2.2736 0.83617 0.83616 10.672-0.32859 11.843-1.4025zm51.718-6.1972c-0.56535-1.9983-4.1374-4.8108-5.2425-4.1278-1.0968 0.67789-2.4742 3.8079-3.5343 8.032l-0.62494 2.49 4.867-2.6101c2.6768-1.4356 4.7175-3.1384 4.5348-3.784zm36.021-0.77575c13.442-6.6709 18.811-10.121 18.811-12.088 0-0.46265-2.9161 1.0005-6.4802 3.2514s-7.2656 3.9414-8.2255 3.7565c-1.1192-0.21553 1.6542-2.4395 7.7302-6.1988 10.953-6.7766 10.494-6.434 9.6882-7.2401-0.34137-0.34137-3.797 1.4719-7.6792 4.0295-8.6889 5.7242-14.062 7.9632-14.018 5.8412 0.00855-0.4125 2.1648-1.8043 4.7917-3.0929 6.5435-3.2098 14.39-9.0292 13.693-10.156-0.31488-0.50949-3.9985 1.5318-8.1858 4.5363s-8.4462 5.4626-9.4641 5.4626-1.8508-0.14871-1.8508-0.33048 3.6-2.761 8-5.7316 8-5.722 8-6.1142c0-1.0348-10.609 3.9329-16.859 7.8944-6.2288 3.9479-8.2313 3.4571-3.1344-0.7682 4.0219-3.3341 2.4361-3.8082-3.5064-1.0483-5.7287 2.6606-7.7474 4.9817-9.9024 11.386l-1.9024 5.6535 2.6666 4.0295c1.4666 2.2162 2.8579 4.0295 3.0917 4.0295s6.8649-3.1958 14.736-7.1018zm-62.649-2.8394c1.3931-2.4427 2.3624-5.1427 2.1539-6-0.2735-1.1246-0.67047-0.86239-1.4251 0.94125-0.57533 1.375-2.6228 4.8359-4.5499 7.6908s-3.232 5.4627-2.8996 5.795c0.74351 0.74351 3.3658-2.5446 6.7208-8.4271zm-52.54 7.3707c0-0.31383-1.7117-2.6763-3.8039-5.25s-4.4182-5.9169-5.169-7.4294c-1.6406-3.3051-3.4439-3.6698-2.4721-0.5 0.82174 2.6805 0.97297 2.9149 5.8062 9 3.3289 4.1911 5.6388 5.9032 5.6388 4.1794zm24.875-1.0544c2.7593-0.55185 3.125-1.02 3.125-4 0-3.753-0.19613-3.8825-3.3157-2.1898-1.2013 0.65183-3.7544 1.4462-5.6735 1.7652-2.1329 0.35458-3.6128 1.2216-3.8071 2.2305-0.45473 2.3612 3.8982 3.3487 9.6713 2.1941zm21.459-4.625c2.5739-2.7002 4.7714-6.9519 4.4239-8.5593-0.25204-1.1658-1.043-0.39223-2.5476 2.4914-1.2002 2.3002-2.6385 4.4642-3.1964 4.809-1.0781 0.66633-1.4034 2.5088-0.44286 2.5088 0.31428 0 1.1076-0.5625 1.763-1.25zm-46.334-0.63699c0-1.2854-6.3617-10.986-7.25-11.055-1.4936-0.11604-0.68663 2.1586 2.484 7.0018 3.0314 4.6306 4.766 6.1056 4.766 4.053zm24.837-3.3927c1.9113-1.5863 5.163-9.2899 5.163-12.232 0-1.4189-1.7846-4.2082-4.5168-7.0598-5.161-5.3866-5.147-5.3401-6.756-22.328-0.12496-1.3193 0.33529-2.5943 1.0228-2.8333 0.83932-0.29178 1.25 0.67704 1.25 2.9488 0 6.0686 3.5525 7.4558 8.4055 3.2821 4.0731-3.5029 10.95-3.7203 18.094-0.5721 4.2925 1.8916 12.062 8.8172 14.981 13.355 2.8775 4.4719 3.0132 2.2383 0.15979-2.6306-4.6725-7.973-13.12-13.432-22.243-14.373-3.1501-0.32512-5.0956-0.95793-4.7356-1.5404 0.90515-1.4646 10.508-0.20134 15.512 2.0406 5.4446 2.4391 10.571 7.3344 14.19 13.551 1.5462 2.6557 2.9952 4.6445 3.2202 4.4196 0.92147-0.92147-2.8458-9.6085-5.6336-12.991-6.0895-7.3876-22.509-12.243-28.384-8.3936-2.8086 1.8402-4.5672 2.1026-4.5672 0.68144 0-0.525-1.1492-2.1038-2.5538-3.5084s-2.278-3.0001-1.941-3.5454c1.0138-1.6404 9.4714-1.2161 10.133 0.50838 0.58837 1.5332 3.3616 2.1291 3.3616 0.72224 0-0.9571-3.1158-3.6786-5.945-5.1928-2.4048-1.287-12.568-1.7329-15.555-0.68249-6.011 2.1139-8.6434 15.488-4.6963 23.859 7.3198 15.525 8.1913 20.604 4.4122 25.716-1.2187 1.6484-2.2158 4.4228-2.2158 6.1654 0 3.1615 0.00904 3.1668 4.2004 2.4966 2.3102-0.36942 4.8467-1.2081 5.6366-1.8636zm-24.837-6.2203c0-1.5556-0.56667-2.5-1.5-2.5-1.614 0-1.8532 0.91589-0.89301 3.4182 0.9342 2.4345 2.393 1.8747 2.393-0.91821zm44 1c0-0.825-0.45-1.5-1-1.5s-1 0.675-1 1.5 0.45 1.5 1 1.5 1-0.675 1-1.5zm74.708-12.182c0.90796-2.3661-0.12412-2.299-2.4928 0.16202-2.215 2.3014-2.2177 2.3332-0.15059 1.7927 1.1575-0.30269 2.347-1.1823 2.6434-1.9547zm-84.708-31.35c0-1.1972-2.8206-2.4813-3.6433-1.6587-0.87571 0.87571 0.60965 2.6901 2.2023 2.6901 0.79254 0 1.441-0.46412 1.441-1.0314zm-22.575-11.519c7.8443-0.2802 9.7897-0.74599 16.061-3.8455 4.8163-2.3803 9.31-5.7117 13.825-10.248 3.6789-3.697 6.6888-7.1309 6.6888-7.631s0.9-2.0534 2-3.4518c3.5688-4.537 2.1179-4.3531-2.75 0.34862-6.6055 6.38-14.675 11.636-21.75 14.166-23.495 8.4025-46.841 3.2889-64.75-14.183-5.2781-5.1493-5.8359-4.9731-2.3276 0.73507 3.1648 5.1492 10.851 13.064 16.383 16.87 7.7757 5.3498 18.653 8.9986 24.195 8.1159 1.925-0.30664 7.5164-0.701 12.425-0.87635zm4.8772-10.082c19.002-4.3108 27.915-13.181 28.002-27.867 0.12707-21.46-29.334-36.593-55.804-28.664-11.67 3.4956-20.893 11.252-24.342 20.472-2.866 7.6599-2.7403 12.628 0.48601 19.217 3.6559 7.4664 12.205 12.951 25.703 16.49 8.9458 2.3451 16.707 2.4505 25.956 0.35249zm189.1 27.463c-2.6613-3.4815-5.4153-6.9246-6.12-7.6514s-1.2812-1.7393-1.2812-2.25c0-1.6321 2.4774-0.99506 3.6916 0.94921 0.64498 1.0328 3.2715 4.4545 5.8367 7.6039 3.0332 3.724 4.3227 6.0674 3.6878 6.7022s-2.668-1.2371-5.8149-5.3539zm12.999 2.42c-1.5604-2.0625-3.8918-4.875-5.1808-6.25-3.4193-3.6473-4.427-5.7536-3.1349-6.5522 0.59941-0.37046 1.4356-0.28527 1.8583 0.18931 2.8307 3.1786 11.057 14.653 11.057 15.423 0 1.9488-1.8585 0.81356-4.5998-2.8098zm-47.65 2.0607c-3.716-0.9711-1.469-6.8779 3.9844-10.474 7.0066-4.6201 19.202 0.98246 18.078 8.3054-0.28507 1.8583-1.0883 2.0532-9.0631 2.1984-4.8127 0.08766-8.7502-0.17811-8.75-0.59061s3.6004-0.75 8.0004-0.75c8.9948 0 9.7454-0.77229 5.5714-5.7327-1.9429-2.309-3.3475-2.9337-7.0241-3.124-4.8052-0.24874-5.8735 0.35809-8.9723 5.0966-1.6218 2.48-1.6392 2.7984-0.1834 3.357 0.88458 0.33945 1.6083 1.019 1.6083 1.5102 0 0.93336-0.36927 0.9565-3.25 0.20368zm25.098-19.061c-0.08378-0.4125-0.21-1.2-0.2805-1.75s-0.98918-2.4459-2.0415-4.2131c-2.2643-3.8025-5.5412-4.7653-13.033-3.8292-3.0334 0.379-5.5504 0.25735-5.8852-0.28444-1.0155-1.6431 2.093-3.2945 6.3109-3.3527 3.4789-0.04801 4.3539-0.52438 6.0732-3.3064 3.3795-5.4682 2.7016-9.4178-2.4912-14.514-3.9483-3.875-4.5-4.9426-4.5-8.7082 0-3.2627-0.38263-4.2918-1.5957-4.2918-2.3408 0-7.4043 3.2248-7.4043 4.7156 0 0.70641-0.675 1.2844-1.5 1.2844-2.8546 0-1.4805-2.6294 3.1658-6.0575 7.8359-5.7815 9.3072-6.3982 11.067-4.6385 1.3555 1.3555 1.3533 1.9958-0.02034 6.0273-0.84532 2.4809-1.2764 4.7712-0.9579 5.0897s3.1454 0.57904 6.282 0.57904c4.9247 0 7.229 0.7633 16.886 5.5933 6.1504 3.0763 11.013 6.1014 10.806 6.7224-0.55877 1.6763-4.8546 2.4636-7.8863 1.4454-1.462-0.49104-4.387-0.75067-6.5-0.57696l-3.8418 0.31584v5c0 4.4238 0.25927 5.0368 2.25 5.3196 3.0316 0.43056 2.862 2.9888-0.25 3.7698-2.2404 0.56231-2.5 1.1353-2.5 5.519 0 2.6904-0.45 4.8916-1 4.8916s-1.0685-0.3375-1.1523-0.75zm0.65944-15.272c0.84579-2.6648-0.26948-7.5354-2.0671-9.0273-1.1775-0.97724-1.783-0.41303-3.4138 3.1809-2.5486 5.6167-2.5168 6.6353 0.22372 7.1631 4.2039 0.80971 4.6149 0.70678 5.2571-1.3167zm15.928-9.873c0.30438-0.4925-3.4946-2.9675-8.4421-5.5-7.5764-3.8781-9.8926-4.6045-14.682-4.6045h-5.686l2.9371 3.0893c4.5751 4.8121 8.0299 6.1697 15.375 6.0416 3.6093-0.06295 7.2374 0.32496 8.0624 0.86201 1.847 1.2023 1.7636 1.1985 2.4354 0.11162zm-29.435-21.105c0-0.55-0.45-1-1-1s-1 0.45-1 1 0.45 1 1 1 1-0.45 1-1z"/>
</svg>
